STARTFONT 2.1
COMMENT
COMMENT Converted from OpenType font "EncodeSans-VariableFont_wdth,wght.ttf" by "otf2bdf 3.0".
COMMENT
FONT -FreeType-Encode Sans Condensed Thin-Medium-R-Normal--13-130-72-72-P-52-ISO10646-1
SIZE 13 72 72
FONTBOUNDINGBOX 16 17 -2 -3
STARTPROPERTIES 19
FOUNDRY "FreeType"
FAMILY_NAME "Encode Sans Condensed Thin"
WEIGHT_NAME "Medium"
SLANT "R"
SETWIDTH_NAME "Normal"
ADD_STYLE_NAME ""
PIXEL_SIZE 13
POINT_SIZE 130
RESOLUTION_X 72
RESOLUTION_Y 72
SPACING "P"
AVERAGE_WIDTH 52
CHARSET_REGISTRY "ISO10646"
CHARSET_ENCODING "1"
FONT_ASCENT 13
FONT_DESCENT 2
COPYRIGHT "Copyright 2020 The Encode Project Authors (https://github.com/thundernixon/Encode-Sans), with Reserved Font Name 'Encode Sans'."
_OTF_FONTFILE "EncodeSans-VariableFont_wdth,wght.ttf"
_OTF_PSNAME "EncodeSans-CondensedThin"
ENDPROPERTIES
CHARS 687
STARTCHAR 0000
ENCODING 0
SWIDTH 0 0
DWIDTH 0 0
BBX 0 0 0 0
BITMAP
ENDCHAR
STARTCHAR 000D
ENCODING 13
SWIDTH 230 0
DWIDTH 3 0
BBX 0 0 0 0
BITMAP
ENDCHAR
STARTCHAR 0020
ENCODING 32
SWIDTH 230 0
DWIDTH 3 0
BBX 0 0 0 0
BITMAP
ENDCHAR
STARTCHAR 0021
ENCODING 33
SWIDTH 230 0
DWIDTH 3 0
BBX 1 10 1 0
BITMAP
80
80
80
80
80
80
80
80
00
80
ENDCHAR
STARTCHAR 0022
ENCODING 34
SWIDTH 307 0
DWIDTH 4 0
BBX 2 5 1 6
BITMAP
C0
C0
C0
C0
C0
ENDCHAR
STARTCHAR 0023
ENCODING 35
SWIDTH 538 0
DWIDTH 7 0
BBX 5 10 1 0
BITMAP
50
50
50
F8
50
50
F8
50
A0
A0
ENDCHAR
STARTCHAR 0024
ENCODING 36
SWIDTH 461 0
DWIDTH 6 0
BBX 5 13 0 -2
BITMAP
20
78
80
80
80
40
30
08
08
08
D0
20
20
ENDCHAR
STARTCHAR 0025
ENCODING 37
SWIDTH 769 0
DWIDTH 10 0
BBX 8 10 1 0
BITMAP
44
A4
98
98
AB
B5
55
15
25
27
ENDCHAR
STARTCHAR 0026
ENCODING 38
SWIDTH 615 0
DWIDTH 8 0
BBX 7 10 1 0
BITMAP
38
40
40
40
40
A4
94
8C
84
7A
ENDCHAR
STARTCHAR 0027
ENCODING 39
SWIDTH 153 0
DWIDTH 2 0
BBX 1 5 1 6
BITMAP
80
80
80
80
80
ENDCHAR
STARTCHAR 0028
ENCODING 40
SWIDTH 307 0
DWIDTH 4 0
BBX 2 14 1 -3
BITMAP
40
40
80
80
80
80
80
80
80
80
80
80
40
40
ENDCHAR
STARTCHAR 0029
ENCODING 41
SWIDTH 307 0
DWIDTH 4 0
BBX 3 14 0 -3
BITMAP
80
40
40
20
20
20
20
20
20
20
20
40
40
80
ENDCHAR
STARTCHAR 002A
ENCODING 42
SWIDTH 384 0
DWIDTH 5 0
BBX 5 5 0 6
BITMAP
20
20
F8
20
50
ENDCHAR
STARTCHAR 002B
ENCODING 43
SWIDTH 538 0
DWIDTH 7 0
BBX 5 5 1 2
BITMAP
20
20
F8
20
20
ENDCHAR
STARTCHAR 002C
ENCODING 44
SWIDTH 153 0
DWIDTH 2 0
BBX 1 3 1 -2
BITMAP
80
80
80
ENDCHAR
STARTCHAR 002D
ENCODING 45
SWIDTH 307 0
DWIDTH 4 0
BBX 2 1 1 3
BITMAP
C0
ENDCHAR
STARTCHAR 002E
ENCODING 46
SWIDTH 153 0
DWIDTH 2 0
BBX 1 1 1 0
BITMAP
80
ENDCHAR
STARTCHAR 002F
ENCODING 47
SWIDTH 230 0
DWIDTH 3 0
BBX 3 13 0 -2
BITMAP
20
20
20
40
40
40
40
40
80
80
80
80
80
ENDCHAR
STARTCHAR 0030
ENCODING 48
SWIDTH 538 0
DWIDTH 7 0
BBX 5 10 1 0
BITMAP
70
88
88
88
88
88
88
88
88
70
ENDCHAR
STARTCHAR 0031
ENCODING 49
SWIDTH 307 0
DWIDTH 4 0
BBX 2 10 0 0
BITMAP
40
C0
40
40
40
40
40
40
40
40
ENDCHAR
STARTCHAR 0032
ENCODING 50
SWIDTH 384 0
DWIDTH 5 0
BBX 5 10 0 0
BITMAP
E0
10
08
08
10
10
20
40
40
F8
ENDCHAR
STARTCHAR 0033
ENCODING 51
SWIDTH 461 0
DWIDTH 6 0
BBX 5 10 0 0
BITMAP
F0
08
08
08
10
70
08
08
08
F0
ENDCHAR
STARTCHAR 0034
ENCODING 52
SWIDTH 461 0
DWIDTH 6 0
BBX 6 10 0 0
BITMAP
10
10
20
20
48
48
88
FC
08
08
ENDCHAR
STARTCHAR 0035
ENCODING 53
SWIDTH 461 0
DWIDTH 6 0
BBX 5 10 0 0
BITMAP
78
40
40
40
60
18
08
08
08
F0
ENDCHAR
STARTCHAR 0036
ENCODING 54
SWIDTH 461 0
DWIDTH 6 0
BBX 5 10 1 0
BITMAP
70
80
80
80
E0
98
88
88
88
70
ENDCHAR
STARTCHAR 0037
ENCODING 55
SWIDTH 384 0
DWIDTH 5 0
BBX 5 10 0 0
BITMAP
F8
08
10
10
10
20
20
20
40
40
ENDCHAR
STARTCHAR 0038
ENCODING 56
SWIDTH 538 0
DWIDTH 7 0
BBX 5 10 1 0
BITMAP
70
88
88
88
50
B0
88
88
88
F0
ENDCHAR
STARTCHAR 0039
ENCODING 57
SWIDTH 461 0
DWIDTH 6 0
BBX 5 10 0 0
BITMAP
70
88
88
88
48
38
08
08
08
70
ENDCHAR
STARTCHAR 003A
ENCODING 58
SWIDTH 153 0
DWIDTH 2 0
BBX 1 7 1 0
BITMAP
80
00
00
00
00
00
80
ENDCHAR
STARTCHAR 003B
ENCODING 59
SWIDTH 153 0
DWIDTH 2 0
BBX 1 9 1 -2
BITMAP
80
00
00
00
00
00
80
80
80
ENDCHAR
STARTCHAR 003C
ENCODING 60
SWIDTH 538 0
DWIDTH 7 0
BBX 5 4 1 3
BITMAP
38
40
C0
38
ENDCHAR
STARTCHAR 003D
ENCODING 61
SWIDTH 538 0
DWIDTH 7 0
BBX 5 2 1 4
BITMAP
F8
F8
ENDCHAR
STARTCHAR 003E
ENCODING 62
SWIDTH 538 0
DWIDTH 7 0
BBX 5 4 1 3
BITMAP
C0
30
38
C0
ENDCHAR
STARTCHAR 003F
ENCODING 63
SWIDTH 384 0
DWIDTH 5 0
BBX 5 10 0 0
BITMAP
F0
08
08
08
10
20
20
20
00
20
ENDCHAR
STARTCHAR 0040
ENCODING 64
SWIDTH 769 0
DWIDTH 10 0
BBX 8 13 1 -3
BITMAP
3C
42
81
BD
85
85
9D
A5
A5
BF
80
40
3C
ENDCHAR
STARTCHAR 0041
ENCODING 65
SWIDTH 538 0
DWIDTH 7 0
BBX 7 10 0 0
BITMAP
10
10
28
28
24
44
7C
42
82
82
ENDCHAR
STARTCHAR 0042
ENCODING 66
SWIDTH 538 0
DWIDTH 7 0
BBX 6 10 1 0
BITMAP
F0
88
84
88
88
F8
84
84
84
F8
ENDCHAR
STARTCHAR 0043
ENCODING 67
SWIDTH 461 0
DWIDTH 6 0
BBX 5 10 1 0
BITMAP
78
80
80
80
80
80
80
80
80
78
ENDCHAR
STARTCHAR 0044
ENCODING 68
SWIDTH 615 0
DWIDTH 8 0
BBX 6 10 1 0
BITMAP
F0
88
84
84
84
84
84
84
88
F0
ENDCHAR
STARTCHAR 0045
ENCODING 69
SWIDTH 461 0
DWIDTH 6 0
BBX 5 10 1 0
BITMAP
F8
80
80
80
80
F0
80
80
80
F8
ENDCHAR
STARTCHAR 0046
ENCODING 70
SWIDTH 461 0
DWIDTH 6 0
BBX 5 10 1 0
BITMAP
F8
80
80
80
80
F0
80
80
80
80
ENDCHAR
STARTCHAR 0047
ENCODING 71
SWIDTH 538 0
DWIDTH 7 0
BBX 5 10 1 0
BITMAP
78
80
80
80
80
88
88
88
88
78
ENDCHAR
STARTCHAR 0048
ENCODING 72
SWIDTH 615 0
DWIDTH 8 0
BBX 6 10 1 0
BITMAP
84
84
84
84
84
FC
84
84
84
84
ENDCHAR
STARTCHAR 0049
ENCODING 73
SWIDTH 230 0
DWIDTH 3 0
BBX 1 10 1 0
BITMAP
80
80
80
80
80
80
80
80
80
80
ENDCHAR
STARTCHAR 004A
ENCODING 74
SWIDTH 230 0
DWIDTH 3 0
BBX 2 12 0 -2
BITMAP
40
40
40
40
40
40
40
40
40
40
80
80
ENDCHAR
STARTCHAR 004B
ENCODING 75
SWIDTH 538 0
DWIDTH 7 0
BBX 6 10 1 0
BITMAP
84
88
90
90
A0
E0
A0
90
88
84
ENDCHAR
STARTCHAR 004C
ENCODING 76
SWIDTH 461 0
DWIDTH 6 0
BBX 5 10 1 0
BITMAP
80
80
80
80
80
80
80
80
80
F8
ENDCHAR
STARTCHAR 004D
ENCODING 77
SWIDTH 769 0
DWIDTH 10 0
BBX 8 10 1 0
BITMAP
81
81
83
C3
A5
A5
A9
99
91
81
ENDCHAR
STARTCHAR 004E
ENCODING 78
SWIDTH 615 0
DWIDTH 8 0
BBX 6 10 1 0
BITMAP
84
84
C4
A4
A4
94
94
8C
8C
84
ENDCHAR
STARTCHAR 004F
ENCODING 79
SWIDTH 615 0
DWIDTH 8 0
BBX 6 10 1 0
BITMAP
70
88
84
84
84
84
84
84
84
78
ENDCHAR
STARTCHAR 0050
ENCODING 80
SWIDTH 538 0
DWIDTH 7 0
BBX 5 10 1 0
BITMAP
F0
88
88
88
88
88
F0
80
80
80
ENDCHAR
STARTCHAR 0051
ENCODING 81
SWIDTH 615 0
DWIDTH 8 0
BBX 6 11 1 -1
BITMAP
70
88
84
84
84
84
84
84
84
48
3C
ENDCHAR
STARTCHAR 0052
ENCODING 82
SWIDTH 538 0
DWIDTH 7 0
BBX 6 10 1 0
BITMAP
F0
88
88
88
88
F0
90
90
88
84
ENDCHAR
STARTCHAR 0053
ENCODING 83
SWIDTH 461 0
DWIDTH 6 0
BBX 5 10 0 0
BITMAP
78
80
80
80
40
30
08
08
08
F0
ENDCHAR
STARTCHAR 0054
ENCODING 84
SWIDTH 461 0
DWIDTH 6 0
BBX 6 10 0 0
BITMAP
FC
10
10
10
10
10
10
10
10
10
ENDCHAR
STARTCHAR 0055
ENCODING 85
SWIDTH 615 0
DWIDTH 8 0
BBX 6 10 1 0
BITMAP
84
84
84
84
84
84
84
84
84
78
ENDCHAR
STARTCHAR 0056
ENCODING 86
SWIDTH 538 0
DWIDTH 7 0
BBX 7 10 0 0
BITMAP
82
82
82
44
44
44
28
28
28
10
ENDCHAR
STARTCHAR 0057
ENCODING 87
SWIDTH 923 0
DWIDTH 12 0
BBX 11 10 0 0
BITMAP
8420
8420
4620
4A20
4A40
4940
2940
3140
3180
1080
ENDCHAR
STARTCHAR 0058
ENCODING 88
SWIDTH 538 0
DWIDTH 7 0
BBX 7 10 0 0
BITMAP
82
44
44
28
10
10
28
28
44
82
ENDCHAR
STARTCHAR 0059
ENCODING 89
SWIDTH 461 0
DWIDTH 6 0
BBX 6 10 0 0
BITMAP
84
84
48
48
30
20
10
10
10
10
ENDCHAR
STARTCHAR 005A
ENCODING 90
SWIDTH 461 0
DWIDTH 6 0
BBX 6 10 0 0
BITMAP
FC
04
08
10
10
20
20
40
40
FC
ENDCHAR
STARTCHAR 005B
ENCODING 91
SWIDTH 307 0
DWIDTH 4 0
BBX 3 14 1 -3
BITMAP
E0
80
80
80
80
80
80
80
80
80
80
80
80
E0
ENDCHAR
STARTCHAR 005C
ENCODING 92
SWIDTH 230 0
DWIDTH 3 0
BBX 3 13 0 -2
BITMAP
80
80
80
80
80
40
40
40
40
40
20
20
20
ENDCHAR
STARTCHAR 005D
ENCODING 93
SWIDTH 307 0
DWIDTH 4 0
BBX 2 14 0 -3
BITMAP
C0
40
40
40
40
40
40
40
40
40
40
40
40
C0
ENDCHAR
STARTCHAR 005E
ENCODING 94
SWIDTH 538 0
DWIDTH 7 0
BBX 5 5 1 5
BITMAP
20
60
50
90
88
ENDCHAR
STARTCHAR 005F
ENCODING 95
SWIDTH 461 0
DWIDTH 6 0
BBX 4 1 1 -1
BITMAP
F0
ENDCHAR
STARTCHAR 0060
ENCODING 96
SWIDTH 384 0
DWIDTH 5 0
BBX 1 3 3 8
BITMAP
80
80
80
ENDCHAR
STARTCHAR 0061
ENCODING 97
SWIDTH 461 0
DWIDTH 6 0
BBX 4 7 1 0
BITMAP
E0
10
10
70
90
90
F0
ENDCHAR
STARTCHAR 0062
ENCODING 98
SWIDTH 461 0
DWIDTH 6 0
BBX 4 11 1 0
BITMAP
80
80
80
80
F0
90
90
90
90
90
E0
ENDCHAR
STARTCHAR 0063
ENCODING 99
SWIDTH 384 0
DWIDTH 5 0
BBX 3 7 1 0
BITMAP
E0
80
80
80
80
80
E0
ENDCHAR
STARTCHAR 0064
ENCODING 100
SWIDTH 461 0
DWIDTH 6 0
BBX 4 11 1 0
BITMAP
10
10
10
10
70
90
90
90
90
90
F0
ENDCHAR
STARTCHAR 0065
ENCODING 101
SWIDTH 461 0
DWIDTH 6 0
BBX 4 7 1 0
BITMAP
E0
90
90
F0
80
80
F0
ENDCHAR
STARTCHAR 0066
ENCODING 102
SWIDTH 307 0
DWIDTH 4 0
BBX 4 11 0 0
BITMAP
30
40
40
40
F0
40
40
40
40
40
40
ENDCHAR
STARTCHAR 0067
ENCODING 103
SWIDTH 461 0
DWIDTH 6 0
BBX 4 10 1 -3
BITMAP
70
90
90
90
90
90
F0
10
10
E0
ENDCHAR
STARTCHAR 0068
ENCODING 104
SWIDTH 461 0
DWIDTH 6 0
BBX 4 11 1 0
BITMAP
80
80
80
80
F0
90
90
90
90
90
90
ENDCHAR
STARTCHAR 0069
ENCODING 105
SWIDTH 153 0
DWIDTH 2 0
BBX 1 10 1 0
BITMAP
80
00
00
80
80
80
80
80
80
80
ENDCHAR
STARTCHAR 006A
ENCODING 106
SWIDTH 153 0
DWIDTH 2 0
BBX 2 13 0 -3
BITMAP
40
00
00
40
40
40
40
40
40
40
40
80
80
ENDCHAR
STARTCHAR 006B
ENCODING 107
SWIDTH 384 0
DWIDTH 5 0
BBX 5 11 1 0
BITMAP
80
80
80
80
90
A0
A0
C0
A0
90
98
ENDCHAR
STARTCHAR 006C
ENCODING 108
SWIDTH 153 0
DWIDTH 2 0
BBX 1 11 1 0
BITMAP
80
80
80
80
80
80
80
80
80
80
80
ENDCHAR
STARTCHAR 006D
ENCODING 109
SWIDTH 692 0
DWIDTH 9 0
BBX 8 7 1 0
BITMAP
FE
91
91
91
91
91
91
ENDCHAR
STARTCHAR 006E
ENCODING 110
SWIDTH 461 0
DWIDTH 6 0
BBX 4 7 1 0
BITMAP
F0
90
90
90
90
90
90
ENDCHAR
STARTCHAR 006F
ENCODING 111
SWIDTH 461 0
DWIDTH 6 0
BBX 4 7 1 0
BITMAP
F0
90
90
90
90
90
F0
ENDCHAR
STARTCHAR 0070
ENCODING 112
SWIDTH 461 0
DWIDTH 6 0
BBX 4 10 1 -3
BITMAP
F0
90
90
90
90
90
E0
80
80
80
ENDCHAR
STARTCHAR 0071
ENCODING 113
SWIDTH 461 0
DWIDTH 6 0
BBX 4 10 1 -3
BITMAP
70
90
90
90
90
90
F0
10
10
10
ENDCHAR
STARTCHAR 0072
ENCODING 114
SWIDTH 307 0
DWIDTH 4 0
BBX 3 7 1 0
BITMAP
E0
80
80
80
80
80
80
ENDCHAR
STARTCHAR 0073
ENCODING 115
SWIDTH 384 0
DWIDTH 5 0
BBX 4 7 0 0
BITMAP
70
80
80
60
10
10
F0
ENDCHAR
STARTCHAR 0074
ENCODING 116
SWIDTH 307 0
DWIDTH 4 0
BBX 4 10 0 0
BITMAP
40
40
40
F0
40
40
40
40
40
70
ENDCHAR
STARTCHAR 0075
ENCODING 117
SWIDTH 461 0
DWIDTH 6 0
BBX 4 7 1 0
BITMAP
90
90
90
90
90
90
F0
ENDCHAR
STARTCHAR 0076
ENCODING 118
SWIDTH 461 0
DWIDTH 6 0
BBX 6 7 0 0
BITMAP
84
88
48
48
50
30
20
ENDCHAR
STARTCHAR 0077
ENCODING 119
SWIDTH 692 0
DWIDTH 9 0
BBX 9 7 0 0
BITMAP
8880
8880
5480
5500
5300
2300
2200
ENDCHAR
STARTCHAR 0078
ENCODING 120
SWIDTH 384 0
DWIDTH 5 0
BBX 5 7 0 0
BITMAP
88
50
50
20
50
50
88
ENDCHAR
STARTCHAR 0079
ENCODING 121
SWIDTH 461 0
DWIDTH 6 0
BBX 6 10 0 -3
BITMAP
84
88
48
48
50
30
20
20
20
20
ENDCHAR
STARTCHAR 007A
ENCODING 122
SWIDTH 384 0
DWIDTH 5 0
BBX 5 7 0 0
BITMAP
F8
10
20
20
40
40
F8
ENDCHAR
STARTCHAR 007B
ENCODING 123
SWIDTH 307 0
DWIDTH 4 0
BBX 4 14 0 -3
BITMAP
30
40
40
40
40
40
C0
40
40
40
40
40
40
30
ENDCHAR
STARTCHAR 007C
ENCODING 124
SWIDTH 230 0
DWIDTH 3 0
BBX 1 14 1 -3
BITMAP
80
80
80
80
80
80
80
80
80
80
80
80
80
80
ENDCHAR
STARTCHAR 007D
ENCODING 125
SWIDTH 307 0
DWIDTH 4 0
BBX 4 14 0 -3
BITMAP
C0
20
20
20
20
20
30
20
20
20
20
20
20
C0
ENDCHAR
STARTCHAR 007E
ENCODING 126
SWIDTH 538 0
DWIDTH 7 0
BBX 5 1 1 4
BITMAP
F8
ENDCHAR
STARTCHAR 00A0
ENCODING 160
SWIDTH 230 0
DWIDTH 3 0
BBX 0 0 0 0
BITMAP
ENDCHAR
STARTCHAR 00A1
ENCODING 161
SWIDTH 230 0
DWIDTH 3 0
BBX 1 9 1 -2
BITMAP
80
00
80
80
80
80
80
80
80
ENDCHAR
STARTCHAR 00A2
ENCODING 162
SWIDTH 384 0
DWIDTH 5 0
BBX 3 11 1 -2
BITMAP
20
20
C0
80
80
80
80
80
E0
20
20
ENDCHAR
STARTCHAR 00A3
ENCODING 163
SWIDTH 538 0
DWIDTH 7 0
BBX 5 10 1 0
BITMAP
38
40
40
40
40
F0
40
40
40
F8
ENDCHAR
STARTCHAR 00A4
ENCODING 164
SWIDTH 538 0
DWIDTH 7 0
BBX 6 6 0 2
BITMAP
84
78
48
44
68
94
ENDCHAR
STARTCHAR 00A5
ENCODING 165
SWIDTH 538 0
DWIDTH 7 0
BBX 7 10 0 0
BITMAP
82
84
44
28
30
7C
10
7C
10
10
ENDCHAR
STARTCHAR 00A6
ENCODING 166
SWIDTH 230 0
DWIDTH 3 0
BBX 1 14 1 -3
BITMAP
80
80
80
80
80
80
00
00
00
80
80
80
80
80
ENDCHAR
STARTCHAR 00A7
ENCODING 167
SWIDTH 384 0
DWIDTH 5 0
BBX 4 10 1 0
BITMAP
60
80
80
C0
B0
90
70
10
10
E0
ENDCHAR
STARTCHAR 00A8
ENCODING 168
SWIDTH 384 0
DWIDTH 5 0
BBX 3 1 2 9
BITMAP
A0
ENDCHAR
STARTCHAR 00A9
ENCODING 169
SWIDTH 846 0
DWIDTH 11 0
BBX 9 10 1 0
BITMAP
3E00
4100
8C80
B080
A080
A080
A080
9C80
4100
3E00
ENDCHAR
STARTCHAR 00AA
ENCODING 170
SWIDTH 384 0
DWIDTH 5 0
BBX 4 6 0 4
BITMAP
60
10
10
70
90
F0
ENDCHAR
STARTCHAR 00AB
ENCODING 171
SWIDTH 384 0
DWIDTH 5 0
BBX 3 5 1 1
BITMAP
A0
A0
C0
A0
A0
ENDCHAR
STARTCHAR 00AC
ENCODING 172
SWIDTH 615 0
DWIDTH 8 0
BBX 6 4 1 1
BITMAP
FC
04
04
04
ENDCHAR
STARTCHAR 00AD
ENCODING 173
SWIDTH 307 0
DWIDTH 4 0
BBX 2 1 1 3
BITMAP
C0
ENDCHAR
STARTCHAR 00AE
ENCODING 174
SWIDTH 769 0
DWIDTH 10 0
BBX 8 8 1 2
BITMAP
3C
42
B9
A5
B9
A9
82
7C
ENDCHAR
STARTCHAR 00AF
ENCODING 175
SWIDTH 384 0
DWIDTH 5 0
BBX 4 1 2 9
BITMAP
F0
ENDCHAR
STARTCHAR 00B0
ENCODING 176
SWIDTH 461 0
DWIDTH 6 0
BBX 4 4 1 6
BITMAP
60
90
90
F0
ENDCHAR
STARTCHAR 00B1
ENCODING 177
SWIDTH 538 0
DWIDTH 7 0
BBX 5 7 1 0
BITMAP
20
20
F8
20
20
00
F8
ENDCHAR
STARTCHAR 00B2
ENCODING 178
SWIDTH 307 0
DWIDTH 4 0
BBX 3 7 1 4
BITMAP
C0
20
20
40
40
80
E0
ENDCHAR
STARTCHAR 00B3
ENCODING 179
SWIDTH 307 0
DWIDTH 4 0
BBX 4 7 0 4
BITMAP
60
10
10
60
10
10
F0
ENDCHAR
STARTCHAR 00B4
ENCODING 180
SWIDTH 384 0
DWIDTH 5 0
BBX 1 3 4 8
BITMAP
80
80
80
ENDCHAR
STARTCHAR 00B5
ENCODING 181
SWIDTH 461 0
DWIDTH 6 0
BBX 4 10 1 -3
BITMAP
90
90
90
90
90
90
F0
80
80
80
ENDCHAR
STARTCHAR 00B6
ENCODING 182
SWIDTH 538 0
DWIDTH 7 0
BBX 5 10 1 0
BITMAP
78
F8
F8
F8
F8
F8
78
18
18
18
ENDCHAR
STARTCHAR 00B7
ENCODING 183
SWIDTH 153 0
DWIDTH 2 0
BBX 1 1 1 3
BITMAP
80
ENDCHAR
STARTCHAR 00B8
ENCODING 184
SWIDTH 384 0
DWIDTH 5 0
BBX 2 3 3 -3
BITMAP
80
40
80
ENDCHAR
STARTCHAR 00B9
ENCODING 185
SWIDTH 307 0
DWIDTH 4 0
BBX 3 7 1 4
BITMAP
40
C0
40
40
40
40
E0
ENDCHAR
STARTCHAR 00BA
ENCODING 186
SWIDTH 384 0
DWIDTH 5 0
BBX 5 6 0 4
BITMAP
70
88
88
88
88
70
ENDCHAR
STARTCHAR 00BB
ENCODING 187
SWIDTH 384 0
DWIDTH 5 0
BBX 4 5 0 1
BITMAP
E0
50
50
50
A0
ENDCHAR
STARTCHAR 00BC
ENCODING 188
SWIDTH 769 0
DWIDTH 10 0
BBX 9 12 1 -1
BITMAP
4200
C400
4400
4400
4800
4900
F200
1200
1500
2500
2380
4100
ENDCHAR
STARTCHAR 00BD
ENCODING 189
SWIDTH 769 0
DWIDTH 10 0
BBX 8 12 1 -1
BITMAP
42
C4
44
44
48
4E
F1
11
11
22
22
47
ENDCHAR
STARTCHAR 00BE
ENCODING 190
SWIDTH 769 0
DWIDTH 10 0
BBX 10 12 0 -1
BITMAP
6100
1200
1200
6200
1400
1480
F900
0900
0A80
1280
11C0
2080
ENDCHAR
STARTCHAR 00BF
ENCODING 191
SWIDTH 384 0
DWIDTH 5 0
BBX 5 10 0 -3
BITMAP
20
00
20
20
20
40
80
80
80
78
ENDCHAR
STARTCHAR 00C0
ENCODING 192
SWIDTH 538 0
DWIDTH 7 0
BBX 7 12 0 0
BITMAP
10
10
10
10
28
28
24
44
7C
42
82
82
ENDCHAR
STARTCHAR 00C1
ENCODING 193
SWIDTH 538 0
DWIDTH 7 0
BBX 7 12 0 0
BITMAP
08
10
10
10
28
28
24
44
7C
42
82
82
ENDCHAR
STARTCHAR 00C2
ENCODING 194
SWIDTH 538 0
DWIDTH 7 0
BBX 7 12 0 0
BITMAP
10
28
10
10
28
28
24
44
7C
42
82
82
ENDCHAR
STARTCHAR 00C3
ENCODING 195
SWIDTH 538 0
DWIDTH 7 0
BBX 7 12 0 0
BITMAP
3C
00
10
10
28
28
24
44
7C
42
82
82
ENDCHAR
STARTCHAR 00C4
ENCODING 196
SWIDTH 538 0
DWIDTH 7 0
BBX 7 12 0 0
BITMAP
28
00
10
10
28
28
24
44
7C
42
82
82
ENDCHAR
STARTCHAR 00C5
ENCODING 197
SWIDTH 538 0
DWIDTH 7 0
BBX 7 13 0 0
BITMAP
18
28
10
10
10
28
28
24
44
7C
42
82
82
ENDCHAR
STARTCHAR 00C6
ENCODING 198
SWIDTH 769 0
DWIDTH 10 0
BBX 10 10 0 0
BITMAP
1FC0
1400
2400
2400
2400
4780
7C00
4400
8400
87C0
ENDCHAR
STARTCHAR 00C7
ENCODING 199
SWIDTH 461 0
DWIDTH 6 0
BBX 5 13 1 -3
BITMAP
78
80
80
80
80
80
80
80
80
58
20
10
30
ENDCHAR
STARTCHAR 00C8
ENCODING 200
SWIDTH 461 0
DWIDTH 6 0
BBX 5 12 1 0
BITMAP
60
20
F8
80
80
80
80
F0
80
80
80
F8
ENDCHAR
STARTCHAR 00C9
ENCODING 201
SWIDTH 461 0
DWIDTH 6 0
BBX 5 12 1 0
BITMAP
10
20
F8
80
80
80
80
F0
80
80
80
F8
ENDCHAR
STARTCHAR 00CA
ENCODING 202
SWIDTH 461 0
DWIDTH 6 0
BBX 5 12 1 0
BITMAP
20
50
F8
80
80
80
80
F0
80
80
80
F8
ENDCHAR
STARTCHAR 00CB
ENCODING 203
SWIDTH 461 0
DWIDTH 6 0
BBX 5 12 1 0
BITMAP
50
00
F8
80
80
80
80
F0
80
80
80
F8
ENDCHAR
STARTCHAR 00CC
ENCODING 204
SWIDTH 230 0
DWIDTH 3 0
BBX 2 12 0 0
BITMAP
80
40
40
40
40
40
40
40
40
40
40
40
ENDCHAR
STARTCHAR 00CD
ENCODING 205
SWIDTH 230 0
DWIDTH 3 0
BBX 1 12 1 0
BITMAP
80
80
80
80
80
80
80
80
80
80
80
80
ENDCHAR
STARTCHAR 00CE
ENCODING 206
SWIDTH 230 0
DWIDTH 3 0
BBX 3 12 0 0
BITMAP
C0
A0
40
40
40
40
40
40
40
40
40
40
ENDCHAR
STARTCHAR 00CF
ENCODING 207
SWIDTH 230 0
DWIDTH 3 0
BBX 3 12 0 0
BITMAP
A0
00
40
40
40
40
40
40
40
40
40
40
ENDCHAR
STARTCHAR 00D0
ENCODING 208
SWIDTH 615 0
DWIDTH 8 0
BBX 7 10 0 0
BITMAP
78
44
42
42
42
E2
42
42
44
78
ENDCHAR
STARTCHAR 00D1
ENCODING 209
SWIDTH 615 0
DWIDTH 8 0
BBX 6 12 1 0
BITMAP
78
00
84
84
C4
A4
A4
94
94
8C
8C
84
ENDCHAR
STARTCHAR 00D2
ENCODING 210
SWIDTH 615 0
DWIDTH 8 0
BBX 6 12 1 0
BITMAP
20
20
70
88
84
84
84
84
84
84
84
78
ENDCHAR
STARTCHAR 00D3
ENCODING 211
SWIDTH 615 0
DWIDTH 8 0
BBX 6 12 1 0
BITMAP
10
20
70
88
84
84
84
84
84
84
84
78
ENDCHAR
STARTCHAR 00D4
ENCODING 212
SWIDTH 615 0
DWIDTH 8 0
BBX 6 12 1 0
BITMAP
30
48
70
88
84
84
84
84
84
84
84
78
ENDCHAR
STARTCHAR 00D5
ENCODING 213
SWIDTH 615 0
DWIDTH 8 0
BBX 6 12 1 0
BITMAP
78
00
70
88
84
84
84
84
84
84
84
78
ENDCHAR
STARTCHAR 00D6
ENCODING 214
SWIDTH 615 0
DWIDTH 8 0
BBX 6 12 1 0
BITMAP
50
00
70
88
84
84
84
84
84
84
84
78
ENDCHAR
STARTCHAR 00D7
ENCODING 215
SWIDTH 461 0
DWIDTH 6 0
BBX 4 4 1 3
BITMAP
90
60
60
90
ENDCHAR
STARTCHAR 00D8
ENCODING 216
SWIDTH 615 0
DWIDTH 8 0
BBX 6 10 1 0
BITMAP
74
88
8C
94
94
A4
C4
C4
84
F8
ENDCHAR
STARTCHAR 00D9
ENCODING 217
SWIDTH 615 0
DWIDTH 8 0
BBX 6 12 1 0
BITMAP
20
20
84
84
84
84
84
84
84
84
84
78
ENDCHAR
STARTCHAR 00DA
ENCODING 218
SWIDTH 615 0
DWIDTH 8 0
BBX 6 12 1 0
BITMAP
10
20
84
84
84
84
84
84
84
84
84
78
ENDCHAR
STARTCHAR 00DB
ENCODING 219
SWIDTH 615 0
DWIDTH 8 0
BBX 6 12 1 0
BITMAP
30
48
84
84
84
84
84
84
84
84
84
78
ENDCHAR
STARTCHAR 00DC
ENCODING 220
SWIDTH 615 0
DWIDTH 8 0
BBX 6 12 1 0
BITMAP
48
00
84
84
84
84
84
84
84
84
84
78
ENDCHAR
STARTCHAR 00DD
ENCODING 221
SWIDTH 461 0
DWIDTH 6 0
BBX 6 12 0 0
BITMAP
10
10
84
84
48
48
30
20
10
10
10
10
ENDCHAR
STARTCHAR 00DE
ENCODING 222
SWIDTH 538 0
DWIDTH 7 0
BBX 5 10 1 0
BITMAP
80
80
F0
88
88
88
88
B0
C0
80
ENDCHAR
STARTCHAR 00DF
ENCODING 223
SWIDTH 538 0
DWIDTH 7 0
BBX 7 11 0 0
BITMAP
38
44
42
42
DC
50
50
4C
42
42
5E
ENDCHAR
STARTCHAR 00E0
ENCODING 224
SWIDTH 461 0
DWIDTH 6 0
BBX 4 11 1 0
BITMAP
80
40
40
00
E0
10
10
70
90
90
F0
ENDCHAR
STARTCHAR 00E1
ENCODING 225
SWIDTH 461 0
DWIDTH 6 0
BBX 4 11 1 0
BITMAP
20
20
40
00
E0
10
10
70
90
90
F0
ENDCHAR
STARTCHAR 00E2
ENCODING 226
SWIDTH 461 0
DWIDTH 6 0
BBX 4 11 1 0
BITMAP
40
40
A0
00
E0
10
10
70
90
90
F0
ENDCHAR
STARTCHAR 00E3
ENCODING 227
SWIDTH 461 0
DWIDTH 6 0
BBX 4 10 1 0
BITMAP
F0
00
00
E0
10
10
70
90
90
F0
ENDCHAR
STARTCHAR 00E4
ENCODING 228
SWIDTH 461 0
DWIDTH 6 0
BBX 4 10 1 0
BITMAP
A0
00
00
E0
10
10
70
90
90
F0
ENDCHAR
STARTCHAR 00E5
ENCODING 229
SWIDTH 461 0
DWIDTH 6 0
BBX 4 11 1 0
BITMAP
40
A0
60
00
E0
10
10
70
90
90
F0
ENDCHAR
STARTCHAR 00E6
ENCODING 230
SWIDTH 692 0
DWIDTH 9 0
BBX 8 7 1 0
BITMAP
EE
11
11
7F
90
90
EF
ENDCHAR
STARTCHAR 00E7
ENCODING 231
SWIDTH 384 0
DWIDTH 5 0
BBX 3 10 1 -3
BITMAP
E0
80
80
80
80
80
A0
40
20
40
ENDCHAR
STARTCHAR 00E8
ENCODING 232
SWIDTH 461 0
DWIDTH 6 0
BBX 4 11 1 0
BITMAP
80
40
40
00
E0
90
90
F0
80
80
F0
ENDCHAR
STARTCHAR 00E9
ENCODING 233
SWIDTH 461 0
DWIDTH 6 0
BBX 4 11 1 0
BITMAP
20
20
40
00
E0
90
90
F0
80
80
F0
ENDCHAR
STARTCHAR 00EA
ENCODING 234
SWIDTH 461 0
DWIDTH 6 0
BBX 4 11 1 0
BITMAP
40
60
A0
00
E0
90
90
F0
80
80
F0
ENDCHAR
STARTCHAR 00EB
ENCODING 235
SWIDTH 461 0
DWIDTH 6 0
BBX 4 10 1 0
BITMAP
A0
00
00
E0
90
90
F0
80
80
F0
ENDCHAR
STARTCHAR 00EC
ENCODING 236
SWIDTH 153 0
DWIDTH 2 0
BBX 1 11 0 0
BITMAP
80
80
80
00
80
80
80
80
80
80
80
ENDCHAR
STARTCHAR 00ED
ENCODING 237
SWIDTH 153 0
DWIDTH 2 0
BBX 1 11 1 0
BITMAP
80
80
80
00
80
80
80
80
80
80
80
ENDCHAR
STARTCHAR 00EE
ENCODING 238
SWIDTH 153 0
DWIDTH 2 0
BBX 3 11 0 0
BITMAP
40
C0
A0
00
40
40
40
40
40
40
40
ENDCHAR
STARTCHAR 00EF
ENCODING 239
SWIDTH 153 0
DWIDTH 2 0
BBX 3 10 0 0
BITMAP
A0
00
00
40
40
40
40
40
40
40
ENDCHAR
STARTCHAR 00F0
ENCODING 240
SWIDTH 461 0
DWIDTH 6 0
BBX 4 11 1 0
BITMAP
40
20
F0
10
F0
90
90
90
90
90
F0
ENDCHAR
STARTCHAR 00F1
ENCODING 241
SWIDTH 461 0
DWIDTH 6 0
BBX 4 10 1 0
BITMAP
F0
00
00
F0
90
90
90
90
90
90
ENDCHAR
STARTCHAR 00F2
ENCODING 242
SWIDTH 461 0
DWIDTH 6 0
BBX 4 11 1 0
BITMAP
80
40
40
00
F0
90
90
90
90
90
F0
ENDCHAR
STARTCHAR 00F3
ENCODING 243
SWIDTH 461 0
DWIDTH 6 0
BBX 4 11 1 0
BITMAP
20
20
20
00
F0
90
90
90
90
90
F0
ENDCHAR
STARTCHAR 00F4
ENCODING 244
SWIDTH 461 0
DWIDTH 6 0
BBX 4 11 1 0
BITMAP
40
60
90
00
F0
90
90
90
90
90
F0
ENDCHAR
STARTCHAR 00F5
ENCODING 245
SWIDTH 461 0
DWIDTH 6 0
BBX 4 10 1 0
BITMAP
F0
00
00
F0
90
90
90
90
90
F0
ENDCHAR
STARTCHAR 00F6
ENCODING 246
SWIDTH 461 0
DWIDTH 6 0
BBX 4 10 1 0
BITMAP
A0
00
00
F0
90
90
90
90
90
F0
ENDCHAR
STARTCHAR 00F7
ENCODING 247
SWIDTH 538 0
DWIDTH 7 0
BBX 5 5 1 2
BITMAP
20
00
F8
00
20
ENDCHAR
STARTCHAR 00F8
ENCODING 248
SWIDTH 461 0
DWIDTH 6 0
BBX 5 7 0 0
BITMAP
78
48
98
A8
A8
48
F8
ENDCHAR
STARTCHAR 00F9
ENCODING 249
SWIDTH 461 0
DWIDTH 6 0
BBX 4 11 1 0
BITMAP
80
40
40
00
90
90
90
90
90
90
F0
ENDCHAR
STARTCHAR 00FA
ENCODING 250
SWIDTH 461 0
DWIDTH 6 0
BBX 4 11 1 0
BITMAP
20
20
20
00
90
90
90
90
90
90
F0
ENDCHAR
STARTCHAR 00FB
ENCODING 251
SWIDTH 461 0
DWIDTH 6 0
BBX 4 11 1 0
BITMAP
40
60
90
00
90
90
90
90
90
90
F0
ENDCHAR
STARTCHAR 00FC
ENCODING 252
SWIDTH 461 0
DWIDTH 6 0
BBX 4 10 1 0
BITMAP
A0
00
00
90
90
90
90
90
90
F0
ENDCHAR
STARTCHAR 00FD
ENCODING 253
SWIDTH 461 0
DWIDTH 6 0
BBX 6 14 0 -3
BITMAP
10
10
20
00
84
88
48
48
50
30
20
20
20
20
ENDCHAR
STARTCHAR 00FE
ENCODING 254
SWIDTH 461 0
DWIDTH 6 0
BBX 4 14 1 -3
BITMAP
80
80
80
80
F0
90
90
90
90
90
E0
80
80
80
ENDCHAR
STARTCHAR 00FF
ENCODING 255
SWIDTH 461 0
DWIDTH 6 0
BBX 6 13 0 -3
BITMAP
50
00
00
84
88
48
48
50
30
20
20
20
20
ENDCHAR
STARTCHAR 0100
ENCODING 256
SWIDTH 538 0
DWIDTH 7 0
BBX 7 12 0 0
BITMAP
38
00
10
10
28
28
24
44
7C
42
82
82
ENDCHAR
STARTCHAR 0101
ENCODING 257
SWIDTH 461 0
DWIDTH 6 0
BBX 4 9 1 0
BITMAP
E0
00
E0
10
10
70
90
90
F0
ENDCHAR
STARTCHAR 0102
ENCODING 258
SWIDTH 538 0
DWIDTH 7 0
BBX 7 12 0 0
BITMAP
28
10
10
10
28
28
24
44
7C
42
82
82
ENDCHAR
STARTCHAR 0103
ENCODING 259
SWIDTH 461 0
DWIDTH 6 0
BBX 4 10 1 0
BITMAP
A0
40
00
E0
10
10
70
90
90
F0
ENDCHAR
STARTCHAR 0104
ENCODING 260
SWIDTH 538 0
DWIDTH 7 0
BBX 8 13 0 -3
BITMAP
10
10
28
28
24
44
7C
42
82
82
02
04
03
ENDCHAR
STARTCHAR 0105
ENCODING 261
SWIDTH 461 0
DWIDTH 6 0
BBX 4 10 1 -3
BITMAP
E0
10
10
70
90
90
F0
20
20
10
ENDCHAR
STARTCHAR 0106
ENCODING 262
SWIDTH 461 0
DWIDTH 6 0
BBX 5 12 1 0
BITMAP
10
20
78
80
80
80
80
80
80
80
80
78
ENDCHAR
STARTCHAR 0107
ENCODING 263
SWIDTH 384 0
DWIDTH 5 0
BBX 3 11 1 0
BITMAP
20
20
40
00
E0
80
80
80
80
80
E0
ENDCHAR
STARTCHAR 0108
ENCODING 264
SWIDTH 461 0
DWIDTH 6 0
BBX 5 12 1 0
BITMAP
30
48
78
80
80
80
80
80
80
80
80
78
ENDCHAR
STARTCHAR 0109
ENCODING 265
SWIDTH 384 0
DWIDTH 5 0
BBX 3 11 1 0
BITMAP
40
60
A0
00
E0
80
80
80
80
80
E0
ENDCHAR
STARTCHAR 010A
ENCODING 266
SWIDTH 461 0
DWIDTH 6 0
BBX 5 12 1 0
BITMAP
20
00
78
80
80
80
80
80
80
80
80
78
ENDCHAR
STARTCHAR 010B
ENCODING 267
SWIDTH 384 0
DWIDTH 5 0
BBX 3 10 1 0
BITMAP
40
00
00
E0
80
80
80
80
80
E0
ENDCHAR
STARTCHAR 010C
ENCODING 268
SWIDTH 461 0
DWIDTH 6 0
BBX 5 12 1 0
BITMAP
70
20
78
80
80
80
80
80
80
80
80
78
ENDCHAR
STARTCHAR 010D
ENCODING 269
SWIDTH 384 0
DWIDTH 5 0
BBX 3 11 1 0
BITMAP
A0
60
40
00
E0
80
80
80
80
80
E0
ENDCHAR
STARTCHAR 010E
ENCODING 270
SWIDTH 615 0
DWIDTH 8 0
BBX 6 12 1 0
BITMAP
50
20
F0
88
84
84
84
84
84
84
88
F0
ENDCHAR
STARTCHAR 010F
ENCODING 271
SWIDTH 461 0
DWIDTH 6 0
BBX 5 11 1 0
BITMAP
18
18
18
10
70
90
90
90
90
90
F0
ENDCHAR
STARTCHAR 0110
ENCODING 272
SWIDTH 615 0
DWIDTH 8 0
BBX 7 10 0 0
BITMAP
78
44
42
42
42
E2
42
42
44
78
ENDCHAR
STARTCHAR 0111
ENCODING 273
SWIDTH 461 0
DWIDTH 6 0
BBX 5 11 1 0
BITMAP
10
10
38
10
70
90
90
90
90
90
F0
ENDCHAR
STARTCHAR 0112
ENCODING 274
SWIDTH 461 0
DWIDTH 6 0
BBX 5 12 1 0
BITMAP
70
00
F8
80
80
80
80
F0
80
80
80
F8
ENDCHAR
STARTCHAR 0113
ENCODING 275
SWIDTH 461 0
DWIDTH 6 0
BBX 4 9 1 0
BITMAP
E0
00
E0
90
90
F0
80
80
F0
ENDCHAR
STARTCHAR 0114
ENCODING 276
SWIDTH 461 0
DWIDTH 6 0
BBX 5 12 1 0
BITMAP
50
20
F8
80
80
80
80
F0
80
80
80
F8
ENDCHAR
STARTCHAR 0115
ENCODING 277
SWIDTH 461 0
DWIDTH 6 0
BBX 4 10 1 0
BITMAP
A0
60
00
E0
90
90
F0
80
80
F0
ENDCHAR
STARTCHAR 0116
ENCODING 278
SWIDTH 461 0
DWIDTH 6 0
BBX 5 12 1 0
BITMAP
20
00
F8
80
80
80
80
F0
80
80
80
F8
ENDCHAR
STARTCHAR 0117
ENCODING 279
SWIDTH 461 0
DWIDTH 6 0
BBX 4 10 1 0
BITMAP
40
00
00
E0
90
90
F0
80
80
F0
ENDCHAR
STARTCHAR 0118
ENCODING 280
SWIDTH 461 0
DWIDTH 6 0
BBX 6 13 1 -3
BITMAP
F8
80
80
80
80
F0
80
80
80
F0
08
10
0C
ENDCHAR
STARTCHAR 0119
ENCODING 281
SWIDTH 461 0
DWIDTH 6 0
BBX 4 10 1 -3
BITMAP
E0
90
90
F0
80
80
D0
20
40
30
ENDCHAR
STARTCHAR 011A
ENCODING 282
SWIDTH 461 0
DWIDTH 6 0
BBX 5 12 1 0
BITMAP
50
20
F8
80
80
80
80
F0
80
80
80
F8
ENDCHAR
STARTCHAR 011B
ENCODING 283
SWIDTH 461 0
DWIDTH 6 0
BBX 4 11 1 0
BITMAP
90
60
40
00
E0
90
90
F0
80
80
F0
ENDCHAR
STARTCHAR 011C
ENCODING 284
SWIDTH 538 0
DWIDTH 7 0
BBX 5 12 1 0
BITMAP
30
48
78
80
80
80
80
88
88
88
88
78
ENDCHAR
STARTCHAR 011D
ENCODING 285
SWIDTH 461 0
DWIDTH 6 0
BBX 4 14 1 -3
BITMAP
20
60
50
00
70
90
90
90
90
90
F0
10
10
E0
ENDCHAR
STARTCHAR 011E
ENCODING 286
SWIDTH 538 0
DWIDTH 7 0
BBX 5 12 1 0
BITMAP
48
30
78
80
80
80
80
88
88
88
88
78
ENDCHAR
STARTCHAR 011F
ENCODING 287
SWIDTH 461 0
DWIDTH 6 0
BBX 4 13 1 -3
BITMAP
90
60
00
70
90
90
90
90
90
F0
10
10
E0
ENDCHAR
STARTCHAR 0120
ENCODING 288
SWIDTH 538 0
DWIDTH 7 0
BBX 5 12 1 0
BITMAP
10
00
78
80
80
80
80
88
88
88
88
78
ENDCHAR
STARTCHAR 0121
ENCODING 289
SWIDTH 461 0
DWIDTH 6 0
BBX 4 13 1 -3
BITMAP
20
00
00
70
90
90
90
90
90
F0
10
10
E0
ENDCHAR
STARTCHAR 0122
ENCODING 290
SWIDTH 538 0
DWIDTH 7 0
BBX 5 13 1 -3
BITMAP
78
80
80
80
80
88
88
88
88
78
00
20
10
ENDCHAR
STARTCHAR 0123
ENCODING 291
SWIDTH 461 0
DWIDTH 6 0
BBX 4 14 1 -3
BITMAP
20
40
00
00
70
90
90
90
90
90
F0
10
10
E0
ENDCHAR
STARTCHAR 0124
ENCODING 292
SWIDTH 615 0
DWIDTH 8 0
BBX 6 12 1 0
BITMAP
30
48
84
84
84
84
84
FC
84
84
84
84
ENDCHAR
STARTCHAR 0125
ENCODING 293
SWIDTH 461 0
DWIDTH 6 0
BBX 4 13 1 0
BITMAP
60
90
80
80
80
80
F0
90
90
90
90
90
90
ENDCHAR
STARTCHAR 0126
ENCODING 294
SWIDTH 615 0
DWIDTH 8 0
BBX 8 10 0 0
BITMAP
42
42
FF
42
42
7E
42
42
42
42
ENDCHAR
STARTCHAR 0127
ENCODING 295
SWIDTH 461 0
DWIDTH 6 0
BBX 5 11 0 0
BITMAP
40
40
E0
40
78
48
48
48
48
48
48
ENDCHAR
STARTCHAR 0128
ENCODING 296
SWIDTH 230 0
DWIDTH 3 0
BBX 3 12 0 0
BITMAP
E0
00
40
40
40
40
40
40
40
40
40
40
ENDCHAR
STARTCHAR 0129
ENCODING 297
SWIDTH 153 0
DWIDTH 2 0
BBX 3 10 0 0
BITMAP
E0
00
00
40
40
40
40
40
40
40
ENDCHAR
STARTCHAR 012A
ENCODING 298
SWIDTH 230 0
DWIDTH 3 0
BBX 3 12 0 0
BITMAP
E0
00
40
40
40
40
40
40
40
40
40
40
ENDCHAR
STARTCHAR 012B
ENCODING 299
SWIDTH 153 0
DWIDTH 2 0
BBX 3 9 0 0
BITMAP
E0
00
40
40
40
40
40
40
40
ENDCHAR
STARTCHAR 012C
ENCODING 300
SWIDTH 230 0
DWIDTH 3 0
BBX 3 12 0 0
BITMAP
A0
40
40
40
40
40
40
40
40
40
40
40
ENDCHAR
STARTCHAR 012D
ENCODING 301
SWIDTH 153 0
DWIDTH 2 0
BBX 3 10 0 0
BITMAP
A0
C0
00
40
40
40
40
40
40
40
ENDCHAR
STARTCHAR 012E
ENCODING 302
SWIDTH 230 0
DWIDTH 3 0
BBX 2 13 0 -3
BITMAP
40
40
40
40
40
40
40
40
40
40
80
80
40
ENDCHAR
STARTCHAR 012F
ENCODING 303
SWIDTH 153 0
DWIDTH 2 0
BBX 2 13 0 -3
BITMAP
40
00
00
40
40
40
40
40
40
40
80
80
40
ENDCHAR
STARTCHAR 0130
ENCODING 304
SWIDTH 230 0
DWIDTH 3 0
BBX 1 12 1 0
BITMAP
80
00
80
80
80
80
80
80
80
80
80
80
ENDCHAR
STARTCHAR 0131
ENCODING 305
SWIDTH 153 0
DWIDTH 2 0
BBX 1 7 1 0
BITMAP
80
80
80
80
80
80
80
ENDCHAR
STARTCHAR 0134
ENCODING 308
SWIDTH 230 0
DWIDTH 3 0
BBX 3 14 0 -2
BITMAP
C0
A0
40
40
40
40
40
40
40
40
40
40
80
80
ENDCHAR
STARTCHAR 0135
ENCODING 309
SWIDTH 153 0
DWIDTH 2 0
BBX 3 14 0 -3
BITMAP
40
C0
A0
00
40
40
40
40
40
40
40
40
80
80
ENDCHAR
STARTCHAR 0136
ENCODING 310
SWIDTH 538 0
DWIDTH 7 0
BBX 6 13 1 -3
BITMAP
84
88
90
90
A0
E0
A0
90
88
84
00
20
20
ENDCHAR
STARTCHAR 0137
ENCODING 311
SWIDTH 384 0
DWIDTH 5 0
BBX 5 14 1 -3
BITMAP
80
80
80
80
90
A0
A0
C0
A0
90
98
00
40
20
ENDCHAR
STARTCHAR 0138
ENCODING 312
SWIDTH 384 0
DWIDTH 5 0
BBX 5 7 1 0
BITMAP
90
A0
A0
C0
A0
90
98
ENDCHAR
STARTCHAR 0139
ENCODING 313
SWIDTH 461 0
DWIDTH 6 0
BBX 5 12 1 0
BITMAP
80
80
80
80
80
80
80
80
80
80
80
F8
ENDCHAR
STARTCHAR 013A
ENCODING 314
SWIDTH 153 0
DWIDTH 2 0
BBX 1 13 1 0
BITMAP
80
80
80
80
80
80
80
80
80
80
80
80
80
ENDCHAR
STARTCHAR 013B
ENCODING 315
SWIDTH 461 0
DWIDTH 6 0
BBX 5 13 1 -3
BITMAP
80
80
80
80
80
80
80
80
80
F8
00
20
20
ENDCHAR
STARTCHAR 013C
ENCODING 316
SWIDTH 153 0
DWIDTH 2 0
BBX 1 14 1 -3
BITMAP
80
80
80
80
80
80
80
80
80
80
80
00
80
80
ENDCHAR
STARTCHAR 013D
ENCODING 317
SWIDTH 461 0
DWIDTH 6 0
BBX 5 11 1 0
BITMAP
20
A0
A0
A0
80
80
80
80
80
80
F8
ENDCHAR
STARTCHAR 013E
ENCODING 318
SWIDTH 153 0
DWIDTH 2 0
BBX 1 11 1 0
BITMAP
80
80
80
80
80
80
80
80
80
80
80
ENDCHAR
STARTCHAR 013F
ENCODING 319
SWIDTH 461 0
DWIDTH 6 0
BBX 5 10 1 0
BITMAP
80
80
80
80
80
90
80
80
80
F8
ENDCHAR
STARTCHAR 0140
ENCODING 320
SWIDTH 153 0
DWIDTH 2 0
BBX 2 11 1 0
BITMAP
80
80
80
80
80
C0
80
80
80
80
80
ENDCHAR
STARTCHAR 0141
ENCODING 321
SWIDTH 461 0
DWIDTH 6 0
BBX 6 10 0 0
BITMAP
40
40
40
60
40
40
C0
40
40
7C
ENDCHAR
STARTCHAR 0142
ENCODING 322
SWIDTH 153 0
DWIDTH 2 0
BBX 2 11 0 0
BITMAP
40
40
40
40
40
40
40
80
40
40
40
ENDCHAR
STARTCHAR 0143
ENCODING 323
SWIDTH 615 0
DWIDTH 8 0
BBX 6 12 1 0
BITMAP
10
10
84
84
C4
A4
A4
94
94
8C
8C
84
ENDCHAR
STARTCHAR 0144
ENCODING 324
SWIDTH 461 0
DWIDTH 6 0
BBX 4 11 1 0
BITMAP
10
20
20
00
F0
90
90
90
90
90
90
ENDCHAR
STARTCHAR 0145
ENCODING 325
SWIDTH 615 0
DWIDTH 8 0
BBX 6 13 1 -3
BITMAP
84
84
C4
A4
A4
94
94
8C
8C
84
00
10
10
ENDCHAR
STARTCHAR 0146
ENCODING 326
SWIDTH 461 0
DWIDTH 6 0
BBX 4 10 1 -3
BITMAP
F0
90
90
90
90
90
90
00
20
20
ENDCHAR
STARTCHAR 0147
ENCODING 327
SWIDTH 615 0
DWIDTH 8 0
BBX 6 12 1 0
BITMAP
38
10
84
84
C4
A4
A4
94
94
8C
8C
84
ENDCHAR
STARTCHAR 0148
ENCODING 328
SWIDTH 461 0
DWIDTH 6 0
BBX 4 11 1 0
BITMAP
90
60
40
00
F0
90
90
90
90
90
90
ENDCHAR
STARTCHAR 0149
ENCODING 329
SWIDTH 461 0
DWIDTH 6 0
BBX 5 11 0 0
BITMAP
80
80
00
00
78
48
48
48
48
48
48
ENDCHAR
STARTCHAR 014A
ENCODING 330
SWIDTH 615 0
DWIDTH 8 0
BBX 6 13 1 -3
BITMAP
84
84
C4
A4
A4
94
94
8C
8C
84
04
04
08
ENDCHAR
STARTCHAR 014B
ENCODING 331
SWIDTH 461 0
DWIDTH 6 0
BBX 4 10 1 -3
BITMAP
F0
90
90
90
90
90
90
10
10
10
ENDCHAR
STARTCHAR 014C
ENCODING 332
SWIDTH 615 0
DWIDTH 8 0
BBX 6 12 1 0
BITMAP
70
00
70
88
84
84
84
84
84
84
84
78
ENDCHAR
STARTCHAR 014D
ENCODING 333
SWIDTH 461 0
DWIDTH 6 0
BBX 4 9 1 0
BITMAP
F0
00
F0
90
90
90
90
90
F0
ENDCHAR
STARTCHAR 014E
ENCODING 334
SWIDTH 615 0
DWIDTH 8 0
BBX 6 12 1 0
BITMAP
48
30
70
88
84
84
84
84
84
84
84
78
ENDCHAR
STARTCHAR 014F
ENCODING 335
SWIDTH 461 0
DWIDTH 6 0
BBX 4 10 1 0
BITMAP
90
60
00
F0
90
90
90
90
90
F0
ENDCHAR
STARTCHAR 0150
ENCODING 336
SWIDTH 615 0
DWIDTH 8 0
BBX 6 12 1 0
BITMAP
30
50
70
88
84
84
84
84
84
84
84
78
ENDCHAR
STARTCHAR 0151
ENCODING 337
SWIDTH 461 0
DWIDTH 6 0
BBX 4 11 1 0
BITMAP
50
50
60
00
F0
90
90
90
90
90
F0
ENDCHAR
STARTCHAR 0152
ENCODING 338
SWIDTH 846 0
DWIDTH 11 0
BBX 10 10 1 0
BITMAP
3F80
C400
8400
8400
8400
8780
8400
8400
8400
7FC0
ENDCHAR
STARTCHAR 0153
ENCODING 339
SWIDTH 769 0
DWIDTH 10 0
BBX 8 7 1 0
BITMAP
FF
89
91
8F
90
88
F7
ENDCHAR
STARTCHAR 0154
ENCODING 340
SWIDTH 538 0
DWIDTH 7 0
BBX 6 12 1 0
BITMAP
30
20
F0
88
88
88
88
F0
90
90
88
84
ENDCHAR
STARTCHAR 0155
ENCODING 341
SWIDTH 307 0
DWIDTH 4 0
BBX 3 11 1 0
BITMAP
20
40
40
00
E0
80
80
80
80
80
80
ENDCHAR
STARTCHAR 0156
ENCODING 342
SWIDTH 538 0
DWIDTH 7 0
BBX 6 13 1 -3
BITMAP
F0
88
88
88
88
F0
90
90
88
84
00
20
20
ENDCHAR
STARTCHAR 0157
ENCODING 343
SWIDTH 307 0
DWIDTH 4 0
BBX 3 10 1 -3
BITMAP
E0
80
80
80
80
80
80
00
80
80
ENDCHAR
STARTCHAR 0158
ENCODING 344
SWIDTH 538 0
DWIDTH 7 0
BBX 6 12 1 0
BITMAP
50
20
F0
88
88
88
88
F0
90
90
88
84
ENDCHAR
STARTCHAR 0159
ENCODING 345
SWIDTH 307 0
DWIDTH 4 0
BBX 3 11 1 0
BITMAP
A0
C0
80
00
E0
80
80
80
80
80
80
ENDCHAR
STARTCHAR 015A
ENCODING 346
SWIDTH 461 0
DWIDTH 6 0
BBX 5 12 0 0
BITMAP
10
20
78
80
80
80
40
30
08
08
08
F0
ENDCHAR
STARTCHAR 015B
ENCODING 347
SWIDTH 384 0
DWIDTH 5 0
BBX 4 11 0 0
BITMAP
10
20
20
00
70
80
80
60
10
10
F0
ENDCHAR
STARTCHAR 015C
ENCODING 348
SWIDTH 461 0
DWIDTH 6 0
BBX 5 12 0 0
BITMAP
30
48
78
80
80
80
40
30
08
08
08
F0
ENDCHAR
STARTCHAR 015D
ENCODING 349
SWIDTH 384 0
DWIDTH 5 0
BBX 4 11 0 0
BITMAP
20
60
50
00
70
80
80
60
10
10
F0
ENDCHAR
STARTCHAR 015E
ENCODING 350
SWIDTH 461 0
DWIDTH 6 0
BBX 5 13 0 -3
BITMAP
78
80
80
80
40
30
08
08
08
D0
20
10
30
ENDCHAR
STARTCHAR 015F
ENCODING 351
SWIDTH 384 0
DWIDTH 5 0
BBX 4 10 0 -3
BITMAP
70
80
80
60
10
10
D0
20
10
60
ENDCHAR
STARTCHAR 0160
ENCODING 352
SWIDTH 461 0
DWIDTH 6 0
BBX 5 12 0 0
BITMAP
70
20
78
80
80
80
40
30
08
08
08
F0
ENDCHAR
STARTCHAR 0161
ENCODING 353
SWIDTH 384 0
DWIDTH 5 0
BBX 4 11 0 0
BITMAP
50
50
20
00
70
80
80
60
10
10
F0
ENDCHAR
STARTCHAR 0162
ENCODING 354
SWIDTH 461 0
DWIDTH 6 0
BBX 6 13 0 -3
BITMAP
FC
10
10
10
10
10
10
10
10
10
10
08
30
ENDCHAR
STARTCHAR 0163
ENCODING 355
SWIDTH 307 0
DWIDTH 4 0
BBX 4 13 0 -3
BITMAP
40
40
40
F0
40
40
40
40
40
50
20
10
20
ENDCHAR
STARTCHAR 0164
ENCODING 356
SWIDTH 461 0
DWIDTH 6 0
BBX 6 12 0 0
BITMAP
38
10
FC
10
10
10
10
10
10
10
10
10
ENDCHAR
STARTCHAR 0165
ENCODING 357
SWIDTH 307 0
DWIDTH 4 0
BBX 4 11 0 0
BITMAP
10
50
50
40
F0
40
40
40
40
40
70
ENDCHAR
STARTCHAR 0166
ENCODING 358
SWIDTH 461 0
DWIDTH 6 0
BBX 6 10 0 0
BITMAP
FC
10
10
10
78
10
10
10
10
10
ENDCHAR
STARTCHAR 0167
ENCODING 359
SWIDTH 307 0
DWIDTH 4 0
BBX 4 10 0 0
BITMAP
40
40
40
F0
40
E0
40
40
40
70
ENDCHAR
STARTCHAR 0168
ENCODING 360
SWIDTH 615 0
DWIDTH 8 0
BBX 6 12 1 0
BITMAP
78
00
84
84
84
84
84
84
84
84
84
78
ENDCHAR
STARTCHAR 0169
ENCODING 361
SWIDTH 461 0
DWIDTH 6 0
BBX 4 10 1 0
BITMAP
F0
00
00
90
90
90
90
90
90
F0
ENDCHAR
STARTCHAR 016A
ENCODING 362
SWIDTH 615 0
DWIDTH 8 0
BBX 6 12 1 0
BITMAP
70
00
84
84
84
84
84
84
84
84
84
78
ENDCHAR
STARTCHAR 016B
ENCODING 363
SWIDTH 461 0
DWIDTH 6 0
BBX 4 9 1 0
BITMAP
F0
00
90
90
90
90
90
90
F0
ENDCHAR
STARTCHAR 016C
ENCODING 364
SWIDTH 615 0
DWIDTH 8 0
BBX 6 12 1 0
BITMAP
48
30
84
84
84
84
84
84
84
84
84
78
ENDCHAR
STARTCHAR 016D
ENCODING 365
SWIDTH 461 0
DWIDTH 6 0
BBX 4 10 1 0
BITMAP
90
60
00
90
90
90
90
90
90
F0
ENDCHAR
STARTCHAR 016E
ENCODING 366
SWIDTH 615 0
DWIDTH 8 0
BBX 6 13 1 0
BITMAP
30
50
20
84
84
84
84
84
84
84
84
84
78
ENDCHAR
STARTCHAR 016F
ENCODING 367
SWIDTH 461 0
DWIDTH 6 0
BBX 4 11 1 0
BITMAP
40
A0
60
00
90
90
90
90
90
90
F0
ENDCHAR
STARTCHAR 0170
ENCODING 368
SWIDTH 615 0
DWIDTH 8 0
BBX 6 12 1 0
BITMAP
28
30
84
84
84
84
84
84
84
84
84
78
ENDCHAR
STARTCHAR 0171
ENCODING 369
SWIDTH 461 0
DWIDTH 6 0
BBX 4 11 1 0
BITMAP
50
50
60
00
90
90
90
90
90
90
F0
ENDCHAR
STARTCHAR 0172
ENCODING 370
SWIDTH 615 0
DWIDTH 8 0
BBX 6 13 1 -3
BITMAP
84
84
84
84
84
84
84
84
84
58
20
20
10
ENDCHAR
STARTCHAR 0173
ENCODING 371
SWIDTH 461 0
DWIDTH 6 0
BBX 5 10 1 -3
BITMAP
90
90
90
90
90
90
F0
10
20
18
ENDCHAR
STARTCHAR 0174
ENCODING 372
SWIDTH 923 0
DWIDTH 12 0
BBX 11 12 0 0
BITMAP
0600
0900
8420
8420
4620
4A20
4A40
4940
2940
3140
3180
1080
ENDCHAR
STARTCHAR 0175
ENCODING 373
SWIDTH 692 0
DWIDTH 9 0
BBX 9 11 0 0
BITMAP
0800
0800
1400
0000
8880
8880
5480
5500
5300
2300
2200
ENDCHAR
STARTCHAR 0176
ENCODING 374
SWIDTH 461 0
DWIDTH 6 0
BBX 6 12 0 0
BITMAP
30
48
84
84
48
48
30
20
10
10
10
10
ENDCHAR
STARTCHAR 0177
ENCODING 375
SWIDTH 461 0
DWIDTH 6 0
BBX 6 14 0 -3
BITMAP
20
30
50
00
84
88
48
48
50
30
20
20
20
20
ENDCHAR
STARTCHAR 0178
ENCODING 376
SWIDTH 461 0
DWIDTH 6 0
BBX 6 12 0 0
BITMAP
28
00
84
84
48
48
30
20
10
10
10
10
ENDCHAR
STARTCHAR 0179
ENCODING 377
SWIDTH 461 0
DWIDTH 6 0
BBX 6 12 0 0
BITMAP
10
10
FC
04
08
10
10
20
20
40
40
FC
ENDCHAR
STARTCHAR 017A
ENCODING 378
SWIDTH 384 0
DWIDTH 5 0
BBX 5 11 0 0
BITMAP
10
20
20
00
F8
10
20
20
40
40
F8
ENDCHAR
STARTCHAR 017B
ENCODING 379
SWIDTH 461 0
DWIDTH 6 0
BBX 6 12 0 0
BITMAP
10
00
FC
04
08
10
10
20
20
40
40
FC
ENDCHAR
STARTCHAR 017C
ENCODING 380
SWIDTH 384 0
DWIDTH 5 0
BBX 5 10 0 0
BITMAP
20
00
00
F8
10
20
20
40
40
F8
ENDCHAR
STARTCHAR 017D
ENCODING 381
SWIDTH 461 0
DWIDTH 6 0
BBX 6 12 0 0
BITMAP
38
10
FC
04
08
10
10
20
20
40
40
FC
ENDCHAR
STARTCHAR 017E
ENCODING 382
SWIDTH 384 0
DWIDTH 5 0
BBX 5 11 0 0
BITMAP
50
50
20
00
F8
10
20
20
40
40
F8
ENDCHAR
STARTCHAR 018F
ENCODING 399
SWIDTH 615 0
DWIDTH 8 0
BBX 6 10 1 0
BITMAP
F0
08
04
04
04
FC
84
84
84
78
ENDCHAR
STARTCHAR 0192
ENCODING 402
SWIDTH 307 0
DWIDTH 4 0
BBX 5 14 -1 -3
BITMAP
18
20
20
20
78
20
20
20
20
20
20
20
20
C0
ENDCHAR
STARTCHAR 01A0
ENCODING 416
SWIDTH 615 0
DWIDTH 8 0
BBX 6 12 1 0
BITMAP
04
04
78
88
84
84
84
84
84
84
84
78
ENDCHAR
STARTCHAR 01A1
ENCODING 417
SWIDTH 461 0
DWIDTH 6 0
BBX 5 9 1 0
BITMAP
08
08
F0
90
88
88
88
90
F0
ENDCHAR
STARTCHAR 01AF
ENCODING 431
SWIDTH 615 0
DWIDTH 8 0
BBX 7 12 1 0
BITMAP
02
02
86
84
84
84
84
84
84
84
84
78
ENDCHAR
STARTCHAR 01B0
ENCODING 432
SWIDTH 461 0
DWIDTH 6 0
BBX 5 9 1 0
BITMAP
08
08
90
90
90
90
90
90
F0
ENDCHAR
STARTCHAR 01C4
ENCODING 452
SWIDTH 1000 0
DWIDTH 13 0
BBX 12 12 1 0
BITMAP
00A0
0040
F1F0
8810
8420
8420
8440
8440
8480
8480
8900
F3F0
ENDCHAR
STARTCHAR 01C5
ENCODING 453
SWIDTH 923 0
DWIDTH 12 0
BBX 11 10 1 0
BITMAP
F1C0
8880
8400
85E0
8420
8440
8480
8480
8900
F1E0
ENDCHAR
STARTCHAR 01C6
ENCODING 454
SWIDTH 846 0
DWIDTH 11 0
BBX 9 11 1 0
BITMAP
1280
1280
1100
1000
7780
9080
9100
9100
9200
9200
F780
ENDCHAR
STARTCHAR 01C7
ENCODING 455
SWIDTH 615 0
DWIDTH 8 0
BBX 6 12 1 -2
BITMAP
84
84
84
84
84
84
84
84
84
FC
04
04
ENDCHAR
STARTCHAR 01C8
ENCODING 456
SWIDTH 615 0
DWIDTH 8 0
BBX 6 13 1 -3
BITMAP
84
80
80
84
84
84
84
84
84
FC
04
04
08
ENDCHAR
STARTCHAR 01C9
ENCODING 457
SWIDTH 384 0
DWIDTH 5 0
BBX 3 14 1 -3
BITMAP
80
A0
80
80
A0
A0
A0
A0
A0
A0
A0
20
20
40
ENDCHAR
STARTCHAR 01CA
ENCODING 458
SWIDTH 846 0
DWIDTH 11 0
BBX 9 12 1 -2
BITMAP
8480
8480
C480
A480
A480
9480
9480
8C80
8C80
8480
0080
0100
ENDCHAR
STARTCHAR 01CB
ENCODING 459
SWIDTH 769 0
DWIDTH 10 0
BBX 9 13 1 -3
BITMAP
8480
8400
C400
A480
A480
9480
9480
8C80
8C80
8480
0080
0100
0100
ENDCHAR
STARTCHAR 01CC
ENCODING 460
SWIDTH 615 0
DWIDTH 8 0
BBX 7 13 1 -3
BITMAP
02
00
00
F2
92
92
92
92
92
92
02
04
04
ENDCHAR
STARTCHAR 01E6
ENCODING 486
SWIDTH 538 0
DWIDTH 7 0
BBX 5 12 1 0
BITMAP
78
10
78
80
80
80
80
88
88
88
88
78
ENDCHAR
STARTCHAR 01E7
ENCODING 487
SWIDTH 461 0
DWIDTH 6 0
BBX 4 14 1 -3
BITMAP
90
60
40
00
70
90
90
90
90
90
F0
10
10
E0
ENDCHAR
STARTCHAR 01EA
ENCODING 490
SWIDTH 615 0
DWIDTH 8 0
BBX 6 13 1 -3
BITMAP
70
88
84
84
84
84
84
84
84
58
20
20
10
ENDCHAR
STARTCHAR 01EB
ENCODING 491
SWIDTH 461 0
DWIDTH 6 0
BBX 4 10 1 -3
BITMAP
F0
90
90
90
90
90
B0
40
40
20
ENDCHAR
STARTCHAR 01F1
ENCODING 497
SWIDTH 1000 0
DWIDTH 13 0
BBX 12 10 1 0
BITMAP
F1F0
8810
8420
8420
8440
8440
8480
8480
8900
F3F0
ENDCHAR
STARTCHAR 01F2
ENCODING 498
SWIDTH 923 0
DWIDTH 12 0
BBX 11 10 1 0
BITMAP
F000
8800
8400
85E0
8420
8440
8480
8480
8900
F1E0
ENDCHAR
STARTCHAR 01F3
ENCODING 499
SWIDTH 846 0
DWIDTH 11 0
BBX 9 11 1 0
BITMAP
1000
1000
1000
1000
7780
9080
9100
9100
9200
9200
F780
ENDCHAR
STARTCHAR 01F4
ENCODING 500
SWIDTH 538 0
DWIDTH 7 0
BBX 5 12 1 0
BITMAP
10
10
78
80
80
80
80
88
88
88
88
78
ENDCHAR
STARTCHAR 01F5
ENCODING 501
SWIDTH 461 0
DWIDTH 6 0
BBX 4 14 1 -3
BITMAP
10
20
20
00
70
90
90
90
90
90
F0
10
10
E0
ENDCHAR
STARTCHAR 01FA
ENCODING 506
SWIDTH 538 0
DWIDTH 7 0
BBX 7 14 0 0
BITMAP
04
18
28
10
10
10
28
28
24
44
7C
42
82
82
ENDCHAR
STARTCHAR 01FB
ENCODING 507
SWIDTH 461 0
DWIDTH 6 0
BBX 4 12 1 0
BITMAP
10
60
A0
60
00
E0
10
10
70
90
90
F0
ENDCHAR
STARTCHAR 01FC
ENCODING 508
SWIDTH 769 0
DWIDTH 10 0
BBX 10 12 0 0
BITMAP
0400
0400
1FC0
1400
2400
2400
2400
4780
7C00
4400
8400
87C0
ENDCHAR
STARTCHAR 01FD
ENCODING 509
SWIDTH 692 0
DWIDTH 9 0
BBX 8 11 1 0
BITMAP
08
08
10
00
EE
11
11
7F
90
90
EF
ENDCHAR
STARTCHAR 01FE
ENCODING 510
SWIDTH 615 0
DWIDTH 8 0
BBX 6 12 1 0
BITMAP
10
20
74
88
8C
94
94
A4
C4
C4
84
F8
ENDCHAR
STARTCHAR 01FF
ENCODING 511
SWIDTH 461 0
DWIDTH 6 0
BBX 5 11 0 0
BITMAP
10
10
10
00
78
48
98
A8
A8
48
F8
ENDCHAR
STARTCHAR 0200
ENCODING 512
SWIDTH 538 0
DWIDTH 7 0
BBX 7 12 0 0
BITMAP
28
28
10
10
28
28
24
44
7C
42
82
82
ENDCHAR
STARTCHAR 0201
ENCODING 513
SWIDTH 461 0
DWIDTH 6 0
BBX 4 11 1 0
BITMAP
C0
A0
A0
00
E0
10
10
70
90
90
F0
ENDCHAR
STARTCHAR 0202
ENCODING 514
SWIDTH 538 0
DWIDTH 7 0
BBX 7 12 0 0
BITMAP
38
00
10
10
28
28
24
44
7C
42
82
82
ENDCHAR
STARTCHAR 0203
ENCODING 515
SWIDTH 461 0
DWIDTH 6 0
BBX 4 10 1 0
BITMAP
E0
A0
00
E0
10
10
70
90
90
F0
ENDCHAR
STARTCHAR 0204
ENCODING 516
SWIDTH 461 0
DWIDTH 6 0
BBX 5 12 1 0
BITMAP
50
50
F8
80
80
80
80
F0
80
80
80
F8
ENDCHAR
STARTCHAR 0205
ENCODING 517
SWIDTH 461 0
DWIDTH 6 0
BBX 4 11 1 0
BITMAP
A0
A0
A0
00
E0
90
90
F0
80
80
F0
ENDCHAR
STARTCHAR 0206
ENCODING 518
SWIDTH 461 0
DWIDTH 6 0
BBX 5 12 1 0
BITMAP
70
00
F8
80
80
80
80
F0
80
80
80
F8
ENDCHAR
STARTCHAR 0207
ENCODING 519
SWIDTH 461 0
DWIDTH 6 0
BBX 4 10 1 0
BITMAP
E0
90
00
E0
90
90
F0
80
80
F0
ENDCHAR
STARTCHAR 0208
ENCODING 520
SWIDTH 230 0
DWIDTH 3 0
BBX 2 12 0 0
BITMAP
C0
C0
40
40
40
40
40
40
40
40
40
40
ENDCHAR
STARTCHAR 0209
ENCODING 521
SWIDTH 153 0
DWIDTH 2 0
BBX 2 11 0 0
BITMAP
C0
C0
C0
00
40
40
40
40
40
40
40
ENDCHAR
STARTCHAR 020A
ENCODING 522
SWIDTH 230 0
DWIDTH 3 0
BBX 3 12 0 0
BITMAP
E0
00
40
40
40
40
40
40
40
40
40
40
ENDCHAR
STARTCHAR 020B
ENCODING 523
SWIDTH 153 0
DWIDTH 2 0
BBX 3 10 0 0
BITMAP
E0
A0
00
40
40
40
40
40
40
40
ENDCHAR
STARTCHAR 020C
ENCODING 524
SWIDTH 615 0
DWIDTH 8 0
BBX 6 12 1 0
BITMAP
50
50
70
88
84
84
84
84
84
84
84
78
ENDCHAR
STARTCHAR 020D
ENCODING 525
SWIDTH 461 0
DWIDTH 6 0
BBX 4 11 1 0
BITMAP
A0
A0
60
00
F0
90
90
90
90
90
F0
ENDCHAR
STARTCHAR 020E
ENCODING 526
SWIDTH 615 0
DWIDTH 8 0
BBX 6 12 1 0
BITMAP
70
00
70
88
84
84
84
84
84
84
84
78
ENDCHAR
STARTCHAR 020F
ENCODING 527
SWIDTH 461 0
DWIDTH 6 0
BBX 4 10 1 0
BITMAP
F0
90
00
F0
90
90
90
90
90
F0
ENDCHAR
STARTCHAR 0210
ENCODING 528
SWIDTH 538 0
DWIDTH 7 0
BBX 6 12 1 0
BITMAP
60
50
F0
88
88
88
88
F0
90
90
88
84
ENDCHAR
STARTCHAR 0211
ENCODING 529
SWIDTH 307 0
DWIDTH 4 0
BBX 4 11 0 0
BITMAP
A0
A0
60
00
70
40
40
40
40
40
40
ENDCHAR
STARTCHAR 0212
ENCODING 530
SWIDTH 538 0
DWIDTH 7 0
BBX 6 12 1 0
BITMAP
70
00
F0
88
88
88
88
F0
90
90
88
84
ENDCHAR
STARTCHAR 0213
ENCODING 531
SWIDTH 307 0
DWIDTH 4 0
BBX 3 10 1 0
BITMAP
E0
A0
00
E0
80
80
80
80
80
80
ENDCHAR
STARTCHAR 0214
ENCODING 532
SWIDTH 615 0
DWIDTH 8 0
BBX 6 12 1 0
BITMAP
50
30
84
84
84
84
84
84
84
84
84
78
ENDCHAR
STARTCHAR 0215
ENCODING 533
SWIDTH 461 0
DWIDTH 6 0
BBX 4 11 1 0
BITMAP
A0
A0
60
00
90
90
90
90
90
90
F0
ENDCHAR
STARTCHAR 0216
ENCODING 534
SWIDTH 615 0
DWIDTH 8 0
BBX 6 12 1 0
BITMAP
78
00
84
84
84
84
84
84
84
84
84
78
ENDCHAR
STARTCHAR 0217
ENCODING 535
SWIDTH 461 0
DWIDTH 6 0
BBX 4 10 1 0
BITMAP
F0
90
00
90
90
90
90
90
90
F0
ENDCHAR
STARTCHAR 0218
ENCODING 536
SWIDTH 461 0
DWIDTH 6 0
BBX 5 13 0 -3
BITMAP
78
80
80
80
40
30
08
08
08
F0
00
20
20
ENDCHAR
STARTCHAR 0219
ENCODING 537
SWIDTH 384 0
DWIDTH 5 0
BBX 4 10 0 -3
BITMAP
70
80
80
60
10
10
F0
00
20
20
ENDCHAR
STARTCHAR 021A
ENCODING 538
SWIDTH 461 0
DWIDTH 6 0
BBX 6 13 0 -3
BITMAP
FC
10
10
10
10
10
10
10
10
10
00
10
10
ENDCHAR
STARTCHAR 021B
ENCODING 539
SWIDTH 307 0
DWIDTH 4 0
BBX 4 13 0 -3
BITMAP
40
40
40
F0
40
40
40
40
40
70
00
20
20
ENDCHAR
STARTCHAR 022A
ENCODING 554
SWIDTH 615 0
DWIDTH 8 0
BBX 6 13 1 0
BITMAP
70
50
00
70
88
84
84
84
84
84
84
84
78
ENDCHAR
STARTCHAR 022B
ENCODING 555
SWIDTH 461 0
DWIDTH 6 0
BBX 4 11 1 0
BITMAP
F0
A0
00
00
F0
90
90
90
90
90
F0
ENDCHAR
STARTCHAR 022C
ENCODING 556
SWIDTH 615 0
DWIDTH 8 0
BBX 6 13 1 0
BITMAP
70
78
00
70
88
84
84
84
84
84
84
84
78
ENDCHAR
STARTCHAR 022D
ENCODING 557
SWIDTH 461 0
DWIDTH 6 0
BBX 4 11 1 0
BITMAP
F0
F0
00
00
F0
90
90
90
90
90
F0
ENDCHAR
STARTCHAR 0230
ENCODING 560
SWIDTH 615 0
DWIDTH 8 0
BBX 6 13 1 0
BITMAP
70
20
00
70
88
84
84
84
84
84
84
84
78
ENDCHAR
STARTCHAR 0231
ENCODING 561
SWIDTH 461 0
DWIDTH 6 0
BBX 4 11 1 0
BITMAP
F0
40
00
00
F0
90
90
90
90
90
F0
ENDCHAR
STARTCHAR 0232
ENCODING 562
SWIDTH 461 0
DWIDTH 6 0
BBX 6 12 0 0
BITMAP
38
00
84
84
48
48
30
20
10
10
10
10
ENDCHAR
STARTCHAR 0233
ENCODING 563
SWIDTH 461 0
DWIDTH 6 0
BBX 6 12 0 -3
BITMAP
70
00
84
88
48
48
50
30
20
20
20
20
ENDCHAR
STARTCHAR 0237
ENCODING 567
SWIDTH 153 0
DWIDTH 2 0
BBX 1 10 0 -3
BITMAP
80
80
80
80
80
80
80
80
80
80
ENDCHAR
STARTCHAR 0259
ENCODING 601
SWIDTH 461 0
DWIDTH 6 0
BBX 5 7 0 0
BITMAP
F0
08
08
F8
88
88
70
ENDCHAR
STARTCHAR 02BB
ENCODING 699
SWIDTH 384 0
DWIDTH 5 0
BBX 1 2 2 9
BITMAP
80
80
ENDCHAR
STARTCHAR 02BC
ENCODING 700
SWIDTH 384 0
DWIDTH 5 0
BBX 1 2 3 9
BITMAP
80
80
ENDCHAR
STARTCHAR 02BE
ENCODING 702
SWIDTH 384 0
DWIDTH 5 0
BBX 1 3 3 8
BITMAP
80
80
80
ENDCHAR
STARTCHAR 02BF
ENCODING 703
SWIDTH 384 0
DWIDTH 5 0
BBX 2 3 1 8
BITMAP
40
80
40
ENDCHAR
STARTCHAR 02C6
ENCODING 710
SWIDTH 384 0
DWIDTH 5 0
BBX 2 3 3 8
BITMAP
80
C0
C0
ENDCHAR
STARTCHAR 02C7
ENCODING 711
SWIDTH 384 0
DWIDTH 5 0
BBX 2 3 3 8
BITMAP
C0
C0
80
ENDCHAR
STARTCHAR 02C8
ENCODING 712
SWIDTH 615 0
DWIDTH 8 0
BBX 1 3 3 8
BITMAP
80
80
80
ENDCHAR
STARTCHAR 02C9
ENCODING 713
SWIDTH 384 0
DWIDTH 5 0
BBX 3 1 1 9
BITMAP
E0
ENDCHAR
STARTCHAR 02CA
ENCODING 714
SWIDTH 384 0
DWIDTH 5 0
BBX 2 3 2 8
BITMAP
40
40
80
ENDCHAR
STARTCHAR 02CB
ENCODING 715
SWIDTH 384 0
DWIDTH 5 0
BBX 2 3 1 8
BITMAP
80
40
40
ENDCHAR
STARTCHAR 02CC
ENCODING 716
SWIDTH 615 0
DWIDTH 8 0
BBX 1 3 3 -3
BITMAP
80
80
80
ENDCHAR
STARTCHAR 02D8
ENCODING 728
SWIDTH 384 0
DWIDTH 5 0
BBX 3 2 2 8
BITMAP
A0
60
ENDCHAR
STARTCHAR 02D9
ENCODING 729
SWIDTH 384 0
DWIDTH 5 0
BBX 1 1 3 9
BITMAP
80
ENDCHAR
STARTCHAR 02DA
ENCODING 730
SWIDTH 384 0
DWIDTH 5 0
BBX 2 3 3 8
BITMAP
80
C0
C0
ENDCHAR
STARTCHAR 02DB
ENCODING 731
SWIDTH 384 0
DWIDTH 5 0
BBX 2 3 3 -3
BITMAP
80
80
C0
ENDCHAR
STARTCHAR 02DC
ENCODING 732
SWIDTH 384 0
DWIDTH 5 0
BBX 4 1 2 9
BITMAP
F0
ENDCHAR
STARTCHAR 02DD
ENCODING 733
SWIDTH 384 0
DWIDTH 5 0
BBX 3 3 3 8
BITMAP
A0
A0
C0
ENDCHAR
STARTCHAR 0300
ENCODING 768
SWIDTH 0 0
DWIDTH 0 0
BBX 1 3 3 8
BITMAP
80
80
80
ENDCHAR
STARTCHAR 0301
ENCODING 769
SWIDTH 0 0
DWIDTH 0 0
BBX 1 3 4 8
BITMAP
80
80
80
ENDCHAR
STARTCHAR 0302
ENCODING 770
SWIDTH 0 0
DWIDTH 0 0
BBX 2 3 3 8
BITMAP
80
C0
C0
ENDCHAR
STARTCHAR 0303
ENCODING 771
SWIDTH 0 0
DWIDTH 0 0
BBX 4 1 2 9
BITMAP
F0
ENDCHAR
STARTCHAR 0304
ENCODING 772
SWIDTH 0 0
DWIDTH 0 0
BBX 4 1 2 9
BITMAP
F0
ENDCHAR
STARTCHAR 0306
ENCODING 774
SWIDTH 0 0
DWIDTH 0 0
BBX 3 2 2 8
BITMAP
A0
60
ENDCHAR
STARTCHAR 0307
ENCODING 775
SWIDTH 0 0
DWIDTH 0 0
BBX 1 1 3 9
BITMAP
80
ENDCHAR
STARTCHAR 0308
ENCODING 776
SWIDTH 0 0
DWIDTH 0 0
BBX 3 1 2 9
BITMAP
A0
ENDCHAR
STARTCHAR 0309
ENCODING 777
SWIDTH 0 0
DWIDTH 0 0
BBX 2 3 3 8
BITMAP
C0
40
40
ENDCHAR
STARTCHAR 030A
ENCODING 778
SWIDTH 0 0
DWIDTH 0 0
BBX 2 3 3 8
BITMAP
80
C0
C0
ENDCHAR
STARTCHAR 030B
ENCODING 779
SWIDTH 0 0
DWIDTH 0 0
BBX 3 3 3 8
BITMAP
A0
A0
C0
ENDCHAR
STARTCHAR 030C
ENCODING 780
SWIDTH 0 0
DWIDTH 0 0
BBX 2 3 3 8
BITMAP
C0
C0
80
ENDCHAR
STARTCHAR 030F
ENCODING 783
SWIDTH 0 0
DWIDTH 0 0
BBX 3 3 2 8
BITMAP
A0
A0
A0
ENDCHAR
STARTCHAR 0311
ENCODING 785
SWIDTH 0 0
DWIDTH 0 0
BBX 3 2 2 8
BITMAP
E0
A0
ENDCHAR
STARTCHAR 0312
ENCODING 786
SWIDTH 0 0
DWIDTH 0 0
BBX 1 2 3 9
BITMAP
80
80
ENDCHAR
STARTCHAR 031B
ENCODING 795
SWIDTH 0 0
DWIDTH 0 0
BBX 2 3 4 9
BITMAP
40
40
80
ENDCHAR
STARTCHAR 0323
ENCODING 803
SWIDTH 0 0
DWIDTH 0 0
BBX 1 1 3 -2
BITMAP
80
ENDCHAR
STARTCHAR 0324
ENCODING 804
SWIDTH 0 0
DWIDTH 0 0
BBX 3 1 2 -2
BITMAP
A0
ENDCHAR
STARTCHAR 0326
ENCODING 806
SWIDTH 0 0
DWIDTH 0 0
BBX 1 2 3 -3
BITMAP
80
80
ENDCHAR
STARTCHAR 0327
ENCODING 807
SWIDTH 0 0
DWIDTH 0 0
BBX 2 3 3 -3
BITMAP
80
40
80
ENDCHAR
STARTCHAR 0328
ENCODING 808
SWIDTH 0 0
DWIDTH 0 0
BBX 2 3 3 -3
BITMAP
80
80
C0
ENDCHAR
STARTCHAR 032E
ENCODING 814
SWIDTH 0 0
DWIDTH 0 0
BBX 3 2 2 -3
BITMAP
A0
40
ENDCHAR
STARTCHAR 0331
ENCODING 817
SWIDTH 0 0
DWIDTH 0 0
BBX 3 1 2 -2
BITMAP
E0
ENDCHAR
STARTCHAR 0394
ENCODING 916
SWIDTH 538 0
DWIDTH 7 0
BBX 7 10 0 0
BITMAP
10
10
28
28
24
44
44
42
82
FE
ENDCHAR
STARTCHAR 03A9
ENCODING 937
SWIDTH 615 0
DWIDTH 8 0
BBX 6 10 1 0
BITMAP
70
88
84
84
84
84
84
84
88
DC
ENDCHAR
STARTCHAR 03BC
ENCODING 956
SWIDTH 461 0
DWIDTH 6 0
BBX 4 10 1 -3
BITMAP
90
90
90
90
90
90
F0
80
80
80
ENDCHAR
STARTCHAR 03C0
ENCODING 960
SWIDTH 538 0
DWIDTH 7 0
BBX 7 7 0 0
BITMAP
FC
48
48
48
48
48
46
ENDCHAR
STARTCHAR 1E08
ENCODING 7688
SWIDTH 461 0
DWIDTH 6 0
BBX 5 15 1 -3
BITMAP
10
20
78
80
80
80
80
80
80
80
80
58
20
10
30
ENDCHAR
STARTCHAR 1E09
ENCODING 7689
SWIDTH 384 0
DWIDTH 5 0
BBX 3 14 1 -3
BITMAP
20
20
40
00
E0
80
80
80
80
80
A0
40
20
40
ENDCHAR
STARTCHAR 1E0C
ENCODING 7692
SWIDTH 615 0
DWIDTH 8 0
BBX 6 12 1 -2
BITMAP
F0
88
84
84
84
84
84
84
88
F0
00
20
ENDCHAR
STARTCHAR 1E0D
ENCODING 7693
SWIDTH 461 0
DWIDTH 6 0
BBX 4 13 1 -2
BITMAP
10
10
10
10
70
90
90
90
90
90
F0
00
40
ENDCHAR
STARTCHAR 1E0E
ENCODING 7694
SWIDTH 615 0
DWIDTH 8 0
BBX 6 12 1 -2
BITMAP
F0
88
84
84
84
84
84
84
88
F0
00
70
ENDCHAR
STARTCHAR 1E0F
ENCODING 7695
SWIDTH 461 0
DWIDTH 6 0
BBX 4 13 1 -2
BITMAP
10
10
10
10
70
90
90
90
90
90
F0
00
60
ENDCHAR
STARTCHAR 1E14
ENCODING 7700
SWIDTH 461 0
DWIDTH 6 0
BBX 5 14 1 0
BITMAP
40
20
70
00
F8
80
80
80
80
F0
80
80
80
F8
ENDCHAR
STARTCHAR 1E15
ENCODING 7701
SWIDTH 461 0
DWIDTH 6 0
BBX 4 12 1 0
BITMAP
40
40
E0
00
00
E0
90
90
F0
80
80
F0
ENDCHAR
STARTCHAR 1E16
ENCODING 7702
SWIDTH 461 0
DWIDTH 6 0
BBX 5 14 1 0
BITMAP
10
20
70
00
F8
80
80
80
80
F0
80
80
80
F8
ENDCHAR
STARTCHAR 1E17
ENCODING 7703
SWIDTH 461 0
DWIDTH 6 0
BBX 4 12 1 0
BITMAP
20
40
E0
00
00
E0
90
90
F0
80
80
F0
ENDCHAR
STARTCHAR 1E1C
ENCODING 7708
SWIDTH 461 0
DWIDTH 6 0
BBX 5 15 1 -3
BITMAP
50
20
F8
80
80
80
80
F0
80
80
80
D8
20
10
20
ENDCHAR
STARTCHAR 1E1D
ENCODING 7709
SWIDTH 461 0
DWIDTH 6 0
BBX 4 13 1 -3
BITMAP
A0
60
00
E0
90
90
F0
80
80
B0
40
20
40
ENDCHAR
STARTCHAR 1E20
ENCODING 7712
SWIDTH 538 0
DWIDTH 7 0
BBX 5 12 1 0
BITMAP
78
00
78
80
80
80
80
88
88
88
88
78
ENDCHAR
STARTCHAR 1E21
ENCODING 7713
SWIDTH 461 0
DWIDTH 6 0
BBX 4 12 1 -3
BITMAP
F0
00
70
90
90
90
90
90
F0
10
10
E0
ENDCHAR
STARTCHAR 1E24
ENCODING 7716
SWIDTH 615 0
DWIDTH 8 0
BBX 6 12 1 -2
BITMAP
84
84
84
84
84
FC
84
84
84
84
00
20
ENDCHAR
STARTCHAR 1E25
ENCODING 7717
SWIDTH 461 0
DWIDTH 6 0
BBX 4 13 1 -2
BITMAP
80
80
80
80
F0
90
90
90
90
90
90
00
20
ENDCHAR
STARTCHAR 1E2A
ENCODING 7722
SWIDTH 615 0
DWIDTH 8 0
BBX 6 13 1 -3
BITMAP
84
84
84
84
84
FC
84
84
84
84
00
48
30
ENDCHAR
STARTCHAR 1E2B
ENCODING 7723
SWIDTH 461 0
DWIDTH 6 0
BBX 4 14 1 -3
BITMAP
80
80
80
80
F0
90
90
90
90
90
90
00
90
60
ENDCHAR
STARTCHAR 1E2E
ENCODING 7726
SWIDTH 230 0
DWIDTH 3 0
BBX 3 14 0 0
BITMAP
20
40
A0
00
40
40
40
40
40
40
40
40
40
40
ENDCHAR
STARTCHAR 1E2F
ENCODING 7727
SWIDTH 153 0
DWIDTH 2 0
BBX 3 12 0 0
BITMAP
40
40
A0
00
00
40
40
40
40
40
40
40
ENDCHAR
STARTCHAR 1E36
ENCODING 7734
SWIDTH 461 0
DWIDTH 6 0
BBX 5 12 1 -2
BITMAP
80
80
80
80
80
80
80
80
80
F8
00
20
ENDCHAR
STARTCHAR 1E37
ENCODING 7735
SWIDTH 153 0
DWIDTH 2 0
BBX 1 13 1 -2
BITMAP
80
80
80
80
80
80
80
80
80
80
80
00
80
ENDCHAR
STARTCHAR 1E3A
ENCODING 7738
SWIDTH 461 0
DWIDTH 6 0
BBX 5 12 1 -2
BITMAP
80
80
80
80
80
80
80
80
80
F8
00
70
ENDCHAR
STARTCHAR 1E3B
ENCODING 7739
SWIDTH 153 0
DWIDTH 2 0
BBX 3 13 0 -2
BITMAP
40
40
40
40
40
40
40
40
40
40
40
00
E0
ENDCHAR
STARTCHAR 1E42
ENCODING 7746
SWIDTH 769 0
DWIDTH 10 0
BBX 8 12 1 -2
BITMAP
81
81
83
C3
A5
A5
A9
99
91
81
00
10
ENDCHAR
STARTCHAR 1E43
ENCODING 7747
SWIDTH 692 0
DWIDTH 9 0
BBX 8 9 1 -2
BITMAP
FE
91
91
91
91
91
91
00
10
ENDCHAR
STARTCHAR 1E44
ENCODING 7748
SWIDTH 615 0
DWIDTH 8 0
BBX 6 12 1 0
BITMAP
10
00
84
84
C4
A4
A4
94
94
8C
8C
84
ENDCHAR
STARTCHAR 1E45
ENCODING 7749
SWIDTH 461 0
DWIDTH 6 0
BBX 4 10 1 0
BITMAP
20
00
00
F0
90
90
90
90
90
90
ENDCHAR
STARTCHAR 1E46
ENCODING 7750
SWIDTH 615 0
DWIDTH 8 0
BBX 6 12 1 -2
BITMAP
84
84
C4
A4
A4
94
94
8C
8C
84
00
10
ENDCHAR
STARTCHAR 1E47
ENCODING 7751
SWIDTH 461 0
DWIDTH 6 0
BBX 4 9 1 -2
BITMAP
F0
90
90
90
90
90
90
00
20
ENDCHAR
STARTCHAR 1E48
ENCODING 7752
SWIDTH 615 0
DWIDTH 8 0
BBX 6 12 1 -2
BITMAP
84
84
C4
A4
A4
94
94
8C
8C
84
00
78
ENDCHAR
STARTCHAR 1E49
ENCODING 7753
SWIDTH 461 0
DWIDTH 6 0
BBX 4 9 1 -2
BITMAP
F0
90
90
90
90
90
90
00
60
ENDCHAR
STARTCHAR 1E4C
ENCODING 7756
SWIDTH 615 0
DWIDTH 8 0
BBX 6 14 1 0
BITMAP
10
20
78
00
70
88
84
84
84
84
84
84
84
78
ENDCHAR
STARTCHAR 1E4D
ENCODING 7757
SWIDTH 461 0
DWIDTH 6 0
BBX 4 12 1 0
BITMAP
20
40
F0
00
00
F0
90
90
90
90
90
F0
ENDCHAR
STARTCHAR 1E4E
ENCODING 7758
SWIDTH 615 0
DWIDTH 8 0
BBX 6 13 1 0
BITMAP
50
78
00
70
88
84
84
84
84
84
84
84
78
ENDCHAR
STARTCHAR 1E4F
ENCODING 7759
SWIDTH 461 0
DWIDTH 6 0
BBX 4 12 1 0
BITMAP
A0
00
F0
00
00
F0
90
90
90
90
90
F0
ENDCHAR
STARTCHAR 1E50
ENCODING 7760
SWIDTH 615 0
DWIDTH 8 0
BBX 6 14 1 0
BITMAP
20
20
70
00
70
88
84
84
84
84
84
84
84
78
ENDCHAR
STARTCHAR 1E51
ENCODING 7761
SWIDTH 461 0
DWIDTH 6 0
BBX 4 12 1 0
BITMAP
40
40
F0
00
00
F0
90
90
90
90
90
F0
ENDCHAR
STARTCHAR 1E52
ENCODING 7762
SWIDTH 615 0
DWIDTH 8 0
BBX 6 14 1 0
BITMAP
10
20
70
00
70
88
84
84
84
84
84
84
84
78
ENDCHAR
STARTCHAR 1E53
ENCODING 7763
SWIDTH 461 0
DWIDTH 6 0
BBX 4 12 1 0
BITMAP
20
40
F0
00
00
F0
90
90
90
90
90
F0
ENDCHAR
STARTCHAR 1E5A
ENCODING 7770
SWIDTH 538 0
DWIDTH 7 0
BBX 6 12 1 -2
BITMAP
F0
88
88
88
88
F0
90
90
88
84
00
20
ENDCHAR
STARTCHAR 1E5B
ENCODING 7771
SWIDTH 307 0
DWIDTH 4 0
BBX 3 9 1 -2
BITMAP
E0
80
80
80
80
80
80
00
80
ENDCHAR
STARTCHAR 1E5E
ENCODING 7774
SWIDTH 538 0
DWIDTH 7 0
BBX 6 12 1 -2
BITMAP
F0
88
88
88
88
F0
90
90
88
84
00
70
ENDCHAR
STARTCHAR 1E5F
ENCODING 7775
SWIDTH 307 0
DWIDTH 4 0
BBX 4 9 0 -2
BITMAP
70
40
40
40
40
40
40
00
E0
ENDCHAR
STARTCHAR 1E60
ENCODING 7776
SWIDTH 461 0
DWIDTH 6 0
BBX 5 12 0 0
BITMAP
20
00
78
80
80
80
40
30
08
08
08
F0
ENDCHAR
STARTCHAR 1E61
ENCODING 7777
SWIDTH 384 0
DWIDTH 5 0
BBX 4 10 0 0
BITMAP
20
00
00
70
80
80
60
10
10
F0
ENDCHAR
STARTCHAR 1E62
ENCODING 7778
SWIDTH 461 0
DWIDTH 6 0
BBX 5 12 0 -2
BITMAP
78
80
80
80
40
30
08
08
08
F0
00
20
ENDCHAR
STARTCHAR 1E63
ENCODING 7779
SWIDTH 384 0
DWIDTH 5 0
BBX 4 9 0 -2
BITMAP
70
80
80
60
10
10
F0
00
20
ENDCHAR
STARTCHAR 1E64
ENCODING 7780
SWIDTH 461 0
DWIDTH 6 0
BBX 5 13 0 0
BITMAP
20
10
20
78
80
80
80
40
30
08
08
08
F0
ENDCHAR
STARTCHAR 1E65
ENCODING 7781
SWIDTH 384 0
DWIDTH 5 0
BBX 4 11 0 0
BITMAP
50
20
20
00
70
80
80
60
10
10
F0
ENDCHAR
STARTCHAR 1E66
ENCODING 7782
SWIDTH 461 0
DWIDTH 6 0
BBX 5 13 0 0
BITMAP
60
30
20
78
80
80
80
40
30
08
08
08
F0
ENDCHAR
STARTCHAR 1E67
ENCODING 7783
SWIDTH 384 0
DWIDTH 5 0
BBX 4 11 0 0
BITMAP
70
50
20
00
70
80
80
60
10
10
F0
ENDCHAR
STARTCHAR 1E68
ENCODING 7784
SWIDTH 461 0
DWIDTH 6 0
BBX 5 14 0 -2
BITMAP
20
00
78
80
80
80
40
30
08
08
08
F0
00
20
ENDCHAR
STARTCHAR 1E69
ENCODING 7785
SWIDTH 384 0
DWIDTH 5 0
BBX 4 12 0 -2
BITMAP
20
00
00
70
80
80
60
10
10
F0
00
20
ENDCHAR
STARTCHAR 1E6C
ENCODING 7788
SWIDTH 461 0
DWIDTH 6 0
BBX 6 12 0 -2
BITMAP
FC
10
10
10
10
10
10
10
10
10
00
10
ENDCHAR
STARTCHAR 1E6D
ENCODING 7789
SWIDTH 307 0
DWIDTH 4 0
BBX 4 12 0 -2
BITMAP
40
40
40
F0
40
40
40
40
40
70
00
20
ENDCHAR
STARTCHAR 1E6E
ENCODING 7790
SWIDTH 461 0
DWIDTH 6 0
BBX 6 12 0 -2
BITMAP
FC
10
10
10
10
10
10
10
10
10
00
38
ENDCHAR
STARTCHAR 1E6F
ENCODING 7791
SWIDTH 307 0
DWIDTH 4 0
BBX 4 12 0 -2
BITMAP
40
40
40
F0
40
40
40
40
40
70
00
70
ENDCHAR
STARTCHAR 1E78
ENCODING 7800
SWIDTH 615 0
DWIDTH 8 0
BBX 6 14 1 0
BITMAP
10
10
78
00
84
84
84
84
84
84
84
84
84
78
ENDCHAR
STARTCHAR 1E79
ENCODING 7801
SWIDTH 461 0
DWIDTH 6 0
BBX 4 12 1 0
BITMAP
20
40
F0
00
00
90
90
90
90
90
90
F0
ENDCHAR
STARTCHAR 1E7A
ENCODING 7802
SWIDTH 615 0
DWIDTH 8 0
BBX 6 13 1 0
BITMAP
48
70
00
84
84
84
84
84
84
84
84
84
78
ENDCHAR
STARTCHAR 1E7B
ENCODING 7803
SWIDTH 461 0
DWIDTH 6 0
BBX 4 12 1 0
BITMAP
A0
00
F0
00
00
90
90
90
90
90
90
F0
ENDCHAR
STARTCHAR 1E80
ENCODING 7808
SWIDTH 923 0
DWIDTH 12 0
BBX 11 12 0 0
BITMAP
0400
0400
8420
8420
4620
4A20
4A40
4940
2940
3140
3180
1080
ENDCHAR
STARTCHAR 1E81
ENCODING 7809
SWIDTH 692 0
DWIDTH 9 0
BBX 9 11 0 0
BITMAP
1000
0800
0800
0000
8880
8880
5480
5500
5300
2300
2200
ENDCHAR
STARTCHAR 1E82
ENCODING 7810
SWIDTH 923 0
DWIDTH 12 0
BBX 11 12 0 0
BITMAP
0200
0400
8420
8420
4620
4A20
4A40
4940
2940
3140
3180
1080
ENDCHAR
STARTCHAR 1E83
ENCODING 7811
SWIDTH 692 0
DWIDTH 9 0
BBX 9 11 0 0
BITMAP
0400
0400
0800
0000
8880
8880
5480
5500
5300
2300
2200
ENDCHAR
STARTCHAR 1E84
ENCODING 7812
SWIDTH 923 0
DWIDTH 12 0
BBX 11 12 0 0
BITMAP
0A00
0000
8420
8420
4620
4A20
4A40
4940
2940
3140
3180
1080
ENDCHAR
STARTCHAR 1E85
ENCODING 7813
SWIDTH 692 0
DWIDTH 9 0
BBX 9 10 0 0
BITMAP
1400
0000
0000
8880
8880
5480
5500
5300
2300
2200
ENDCHAR
STARTCHAR 1E8E
ENCODING 7822
SWIDTH 461 0
DWIDTH 6 0
BBX 6 12 0 0
BITMAP
10
00
84
84
48
48
30
20
10
10
10
10
ENDCHAR
STARTCHAR 1E8F
ENCODING 7823
SWIDTH 461 0
DWIDTH 6 0
BBX 6 13 0 -3
BITMAP
20
00
00
84
88
48
48
50
30
20
20
20
20
ENDCHAR
STARTCHAR 1E92
ENCODING 7826
SWIDTH 461 0
DWIDTH 6 0
BBX 6 12 0 -2
BITMAP
FC
04
08
10
10
20
20
40
40
FC
00
10
ENDCHAR
STARTCHAR 1E93
ENCODING 7827
SWIDTH 384 0
DWIDTH 5 0
BBX 5 9 0 -2
BITMAP
F8
10
20
20
40
40
F8
00
20
ENDCHAR
STARTCHAR 1E97
ENCODING 7831
SWIDTH 307 0
DWIDTH 4 0
BBX 4 12 0 0
BITMAP
A0
00
40
40
40
F0
40
40
40
40
40
70
ENDCHAR
STARTCHAR 1E9E
ENCODING 7838
SWIDTH 615 0
DWIDTH 8 0
BBX 6 10 1 0
BITMAP
78
84
88
90
A0
98
84
84
84
F8
ENDCHAR
STARTCHAR 1EA0
ENCODING 7840
SWIDTH 538 0
DWIDTH 7 0
BBX 7 12 0 -2
BITMAP
10
10
28
28
24
44
7C
42
82
82
00
10
ENDCHAR
STARTCHAR 1EA1
ENCODING 7841
SWIDTH 461 0
DWIDTH 6 0
BBX 4 9 1 -2
BITMAP
E0
10
10
70
90
90
F0
00
40
ENDCHAR
STARTCHAR 1EA2
ENCODING 7842
SWIDTH 538 0
DWIDTH 7 0
BBX 7 12 0 0
BITMAP
18
10
10
10
28
28
24
44
7C
42
82
82
ENDCHAR
STARTCHAR 1EA3
ENCODING 7843
SWIDTH 461 0
DWIDTH 6 0
BBX 4 11 1 0
BITMAP
40
20
40
00
E0
10
10
70
90
90
F0
ENDCHAR
STARTCHAR 1EA4
ENCODING 7844
SWIDTH 538 0
DWIDTH 7 0
BBX 7 13 0 0
BITMAP
04
10
28
10
10
28
28
24
44
7C
42
82
82
ENDCHAR
STARTCHAR 1EA5
ENCODING 7845
SWIDTH 461 0
DWIDTH 6 0
BBX 4 12 1 0
BITMAP
10
50
40
A0
00
E0
10
10
70
90
90
F0
ENDCHAR
STARTCHAR 1EA6
ENCODING 7846
SWIDTH 538 0
DWIDTH 7 0
BBX 7 13 0 0
BITMAP
08
18
24
10
10
28
28
24
44
7C
42
82
82
ENDCHAR
STARTCHAR 1EA7
ENCODING 7847
SWIDTH 461 0
DWIDTH 6 0
BBX 4 12 1 0
BITMAP
20
50
40
A0
00
E0
10
10
70
90
90
F0
ENDCHAR
STARTCHAR 1EA8
ENCODING 7848
SWIDTH 538 0
DWIDTH 7 0
BBX 7 13 0 0
BITMAP
0C
10
28
10
10
28
28
24
44
7C
42
82
82
ENDCHAR
STARTCHAR 1EA9
ENCODING 7849
SWIDTH 461 0
DWIDTH 6 0
BBX 4 12 1 0
BITMAP
30
50
40
A0
00
E0
10
10
70
90
90
F0
ENDCHAR
STARTCHAR 1EAA
ENCODING 7850
SWIDTH 538 0
DWIDTH 7 0
BBX 7 13 0 0
BITMAP
38
10
28
10
10
28
28
24
44
7C
42
82
82
ENDCHAR
STARTCHAR 1EAB
ENCODING 7851
SWIDTH 461 0
DWIDTH 6 0
BBX 4 12 1 0
BITMAP
F0
40
40
A0
00
E0
10
10
70
90
90
F0
ENDCHAR
STARTCHAR 1EAC
ENCODING 7852
SWIDTH 538 0
DWIDTH 7 0
BBX 7 14 0 -2
BITMAP
10
28
10
10
28
28
24
44
7C
42
82
82
00
10
ENDCHAR
STARTCHAR 1EAD
ENCODING 7853
SWIDTH 461 0
DWIDTH 6 0
BBX 4 13 1 -2
BITMAP
40
40
A0
00
E0
10
10
70
90
90
F0
00
40
ENDCHAR
STARTCHAR 1EAE
ENCODING 7854
SWIDTH 538 0
DWIDTH 7 0
BBX 7 14 0 0
BITMAP
08
10
28
10
10
10
28
28
24
44
7C
42
82
82
ENDCHAR
STARTCHAR 1EAF
ENCODING 7855
SWIDTH 461 0
DWIDTH 6 0
BBX 4 12 1 0
BITMAP
20
40
A0
40
00
E0
10
10
70
90
90
F0
ENDCHAR
STARTCHAR 1EB0
ENCODING 7856
SWIDTH 538 0
DWIDTH 7 0
BBX 7 14 0 0
BITMAP
20
10
28
10
10
10
28
28
24
44
7C
42
82
82
ENDCHAR
STARTCHAR 1EB1
ENCODING 7857
SWIDTH 461 0
DWIDTH 6 0
BBX 4 12 1 0
BITMAP
40
40
A0
40
00
E0
10
10
70
90
90
F0
ENDCHAR
STARTCHAR 1EB2
ENCODING 7858
SWIDTH 538 0
DWIDTH 7 0
BBX 7 14 0 0
BITMAP
18
18
28
10
10
10
28
28
24
44
7C
42
82
82
ENDCHAR
STARTCHAR 1EB3
ENCODING 7859
SWIDTH 461 0
DWIDTH 6 0
BBX 4 12 1 0
BITMAP
60
40
A0
40
00
E0
10
10
70
90
90
F0
ENDCHAR
STARTCHAR 1EB4
ENCODING 7860
SWIDTH 538 0
DWIDTH 7 0
BBX 7 13 0 0
BITMAP
38
28
10
10
10
28
28
24
44
7C
42
82
82
ENDCHAR
STARTCHAR 1EB5
ENCODING 7861
SWIDTH 461 0
DWIDTH 6 0
BBX 4 12 1 0
BITMAP
F0
00
A0
40
00
E0
10
10
70
90
90
F0
ENDCHAR
STARTCHAR 1EB6
ENCODING 7862
SWIDTH 538 0
DWIDTH 7 0
BBX 7 14 0 -2
BITMAP
28
10
10
10
28
28
24
44
7C
42
82
82
00
10
ENDCHAR
STARTCHAR 1EB7
ENCODING 7863
SWIDTH 461 0
DWIDTH 6 0
BBX 4 12 1 -2
BITMAP
A0
40
00
E0
10
10
70
90
90
F0
00
40
ENDCHAR
STARTCHAR 1EB8
ENCODING 7864
SWIDTH 461 0
DWIDTH 6 0
BBX 5 12 1 -2
BITMAP
F8
80
80
80
80
F0
80
80
80
F8
00
20
ENDCHAR
STARTCHAR 1EB9
ENCODING 7865
SWIDTH 461 0
DWIDTH 6 0
BBX 4 9 1 -2
BITMAP
E0
90
90
F0
80
80
F0
00
40
ENDCHAR
STARTCHAR 1EBA
ENCODING 7866
SWIDTH 461 0
DWIDTH 6 0
BBX 5 12 1 0
BITMAP
30
20
F8
80
80
80
80
F0
80
80
80
F8
ENDCHAR
STARTCHAR 1EBB
ENCODING 7867
SWIDTH 461 0
DWIDTH 6 0
BBX 4 11 1 0
BITMAP
40
20
40
00
E0
90
90
F0
80
80
F0
ENDCHAR
STARTCHAR 1EBC
ENCODING 7868
SWIDTH 461 0
DWIDTH 6 0
BBX 5 12 1 0
BITMAP
78
00
F8
80
80
80
80
F0
80
80
80
F8
ENDCHAR
STARTCHAR 1EBD
ENCODING 7869
SWIDTH 461 0
DWIDTH 6 0
BBX 4 10 1 0
BITMAP
F0
00
00
E0
90
90
F0
80
80
F0
ENDCHAR
STARTCHAR 1EBE
ENCODING 7870
SWIDTH 461 0
DWIDTH 6 0
BBX 5 13 1 0
BITMAP
08
20
50
F8
80
80
80
80
F0
80
80
80
F8
ENDCHAR
STARTCHAR 1EBF
ENCODING 7871
SWIDTH 461 0
DWIDTH 6 0
BBX 4 12 1 0
BITMAP
10
50
60
A0
00
E0
90
90
F0
80
80
F0
ENDCHAR
STARTCHAR 1EC0
ENCODING 7872
SWIDTH 461 0
DWIDTH 6 0
BBX 5 13 1 0
BITMAP
10
30
50
F8
80
80
80
80
F0
80
80
80
F8
ENDCHAR
STARTCHAR 1EC1
ENCODING 7873
SWIDTH 461 0
DWIDTH 6 0
BBX 4 12 1 0
BITMAP
20
50
60
A0
00
E0
90
90
F0
80
80
F0
ENDCHAR
STARTCHAR 1EC2
ENCODING 7874
SWIDTH 461 0
DWIDTH 6 0
BBX 5 13 1 0
BITMAP
18
20
50
F8
80
80
80
80
F0
80
80
80
F8
ENDCHAR
STARTCHAR 1EC3
ENCODING 7875
SWIDTH 461 0
DWIDTH 6 0
BBX 4 12 1 0
BITMAP
30
50
60
A0
00
E0
90
90
F0
80
80
F0
ENDCHAR
STARTCHAR 1EC4
ENCODING 7876
SWIDTH 461 0
DWIDTH 6 0
BBX 5 13 1 0
BITMAP
70
20
50
F8
80
80
80
80
F0
80
80
80
F8
ENDCHAR
STARTCHAR 1EC5
ENCODING 7877
SWIDTH 461 0
DWIDTH 6 0
BBX 4 12 1 0
BITMAP
F0
40
60
A0
00
E0
90
90
F0
80
80
F0
ENDCHAR
STARTCHAR 1EC6
ENCODING 7878
SWIDTH 461 0
DWIDTH 6 0
BBX 5 14 1 -2
BITMAP
20
50
F8
80
80
80
80
F0
80
80
80
F8
00
20
ENDCHAR
STARTCHAR 1EC7
ENCODING 7879
SWIDTH 461 0
DWIDTH 6 0
BBX 4 13 1 -2
BITMAP
40
60
A0
00
E0
90
90
F0
80
80
F0
00
40
ENDCHAR
STARTCHAR 1EC8
ENCODING 7880
SWIDTH 230 0
DWIDTH 3 0
BBX 2 12 0 0
BITMAP
C0
40
40
40
40
40
40
40
40
40
40
40
ENDCHAR
STARTCHAR 1EC9
ENCODING 7881
SWIDTH 153 0
DWIDTH 2 0
BBX 2 11 0 0
BITMAP
C0
40
40
00
40
40
40
40
40
40
40
ENDCHAR
STARTCHAR 1ECA
ENCODING 7882
SWIDTH 230 0
DWIDTH 3 0
BBX 1 12 1 -2
BITMAP
80
80
80
80
80
80
80
80
80
80
00
80
ENDCHAR
STARTCHAR 1ECB
ENCODING 7883
SWIDTH 153 0
DWIDTH 2 0
BBX 1 12 1 -2
BITMAP
80
00
00
80
80
80
80
80
80
80
00
80
ENDCHAR
STARTCHAR 1ECC
ENCODING 7884
SWIDTH 615 0
DWIDTH 8 0
BBX 6 12 1 -2
BITMAP
70
88
84
84
84
84
84
84
84
78
00
20
ENDCHAR
STARTCHAR 1ECD
ENCODING 7885
SWIDTH 461 0
DWIDTH 6 0
BBX 4 9 1 -2
BITMAP
F0
90
90
90
90
90
F0
00
40
ENDCHAR
STARTCHAR 1ECE
ENCODING 7886
SWIDTH 615 0
DWIDTH 8 0
BBX 6 12 1 0
BITMAP
30
20
70
88
84
84
84
84
84
84
84
78
ENDCHAR
STARTCHAR 1ECF
ENCODING 7887
SWIDTH 461 0
DWIDTH 6 0
BBX 4 11 1 0
BITMAP
60
20
40
00
F0
90
90
90
90
90
F0
ENDCHAR
STARTCHAR 1ED0
ENCODING 7888
SWIDTH 615 0
DWIDTH 8 0
BBX 6 13 1 0
BITMAP
08
30
48
70
88
84
84
84
84
84
84
84
78
ENDCHAR
STARTCHAR 1ED1
ENCODING 7889
SWIDTH 461 0
DWIDTH 6 0
BBX 4 12 1 0
BITMAP
10
50
60
90
00
F0
90
90
90
90
90
F0
ENDCHAR
STARTCHAR 1ED2
ENCODING 7890
SWIDTH 615 0
DWIDTH 8 0
BBX 6 13 1 0
BITMAP
10
38
48
70
88
84
84
84
84
84
84
84
78
ENDCHAR
STARTCHAR 1ED3
ENCODING 7891
SWIDTH 461 0
DWIDTH 6 0
BBX 4 12 1 0
BITMAP
20
50
60
90
00
F0
90
90
90
90
90
F0
ENDCHAR
STARTCHAR 1ED4
ENCODING 7892
SWIDTH 615 0
DWIDTH 8 0
BBX 6 13 1 0
BITMAP
1C
30
48
70
88
84
84
84
84
84
84
84
78
ENDCHAR
STARTCHAR 1ED5
ENCODING 7893
SWIDTH 461 0
DWIDTH 6 0
BBX 5 12 1 0
BITMAP
38
50
60
90
00
F0
90
88
88
88
90
F0
ENDCHAR
STARTCHAR 1ED6
ENCODING 7894
SWIDTH 615 0
DWIDTH 8 0
BBX 6 13 1 0
BITMAP
70
30
48
70
88
84
84
84
84
84
84
84
78
ENDCHAR
STARTCHAR 1ED7
ENCODING 7895
SWIDTH 461 0
DWIDTH 6 0
BBX 4 12 1 0
BITMAP
F0
40
60
90
00
F0
90
90
90
90
90
F0
ENDCHAR
STARTCHAR 1ED8
ENCODING 7896
SWIDTH 615 0
DWIDTH 8 0
BBX 6 14 1 -2
BITMAP
30
48
70
88
84
84
84
84
84
84
84
78
00
20
ENDCHAR
STARTCHAR 1ED9
ENCODING 7897
SWIDTH 461 0
DWIDTH 6 0
BBX 4 13 1 -2
BITMAP
40
60
90
00
F0
90
90
90
90
90
F0
00
40
ENDCHAR
STARTCHAR 1EDA
ENCODING 7898
SWIDTH 615 0
DWIDTH 8 0
BBX 6 12 1 0
BITMAP
14
24
78
88
84
84
84
84
84
84
84
78
ENDCHAR
STARTCHAR 1EDB
ENCODING 7899
SWIDTH 461 0
DWIDTH 6 0
BBX 5 11 1 0
BITMAP
20
20
28
08
F0
90
88
88
88
90
F0
ENDCHAR
STARTCHAR 1EDC
ENCODING 7900
SWIDTH 615 0
DWIDTH 8 0
BBX 6 12 1 0
BITMAP
24
24
78
88
84
84
84
84
84
84
84
78
ENDCHAR
STARTCHAR 1EDD
ENCODING 7901
SWIDTH 461 0
DWIDTH 6 0
BBX 5 11 1 0
BITMAP
80
40
48
08
F0
90
88
88
88
90
F0
ENDCHAR
STARTCHAR 1EDE
ENCODING 7902
SWIDTH 615 0
DWIDTH 8 0
BBX 6 12 1 0
BITMAP
34
24
78
88
84
84
84
84
84
84
84
78
ENDCHAR
STARTCHAR 1EDF
ENCODING 7903
SWIDTH 461 0
DWIDTH 6 0
BBX 5 11 1 0
BITMAP
60
20
48
08
F0
90
88
88
88
90
F0
ENDCHAR
STARTCHAR 1EE0
ENCODING 7904
SWIDTH 615 0
DWIDTH 8 0
BBX 6 12 1 0
BITMAP
7C
04
78
88
84
84
84
84
84
84
84
78
ENDCHAR
STARTCHAR 1EE1
ENCODING 7905
SWIDTH 461 0
DWIDTH 6 0
BBX 5 10 1 0
BITMAP
F0
08
08
F0
90
88
88
88
90
F0
ENDCHAR
STARTCHAR 1EE2
ENCODING 7906
SWIDTH 615 0
DWIDTH 8 0
BBX 6 14 1 -2
BITMAP
04
04
78
88
84
84
84
84
84
84
84
78
00
20
ENDCHAR
STARTCHAR 1EE3
ENCODING 7907
SWIDTH 461 0
DWIDTH 6 0
BBX 5 11 1 -2
BITMAP
08
08
F0
90
88
88
88
90
F0
00
40
ENDCHAR
STARTCHAR 1EE4
ENCODING 7908
SWIDTH 615 0
DWIDTH 8 0
BBX 6 12 1 -2
BITMAP
84
84
84
84
84
84
84
84
84
78
00
20
ENDCHAR
STARTCHAR 1EE5
ENCODING 7909
SWIDTH 461 0
DWIDTH 6 0
BBX 4 9 1 -2
BITMAP
90
90
90
90
90
90
F0
00
40
ENDCHAR
STARTCHAR 1EE6
ENCODING 7910
SWIDTH 615 0
DWIDTH 8 0
BBX 6 12 1 0
BITMAP
30
20
84
84
84
84
84
84
84
84
84
78
ENDCHAR
STARTCHAR 1EE7
ENCODING 7911
SWIDTH 461 0
DWIDTH 6 0
BBX 4 11 1 0
BITMAP
60
20
40
00
90
90
90
90
90
90
F0
ENDCHAR
STARTCHAR 1EE8
ENCODING 7912
SWIDTH 615 0
DWIDTH 8 0
BBX 7 12 1 0
BITMAP
12
22
86
84
84
84
84
84
84
84
84
78
ENDCHAR
STARTCHAR 1EE9
ENCODING 7913
SWIDTH 461 0
DWIDTH 6 0
BBX 5 11 1 0
BITMAP
20
20
28
08
90
90
90
90
90
90
F0
ENDCHAR
STARTCHAR 1EEA
ENCODING 7914
SWIDTH 615 0
DWIDTH 8 0
BBX 7 12 1 0
BITMAP
22
22
86
84
84
84
84
84
84
84
84
78
ENDCHAR
STARTCHAR 1EEB
ENCODING 7915
SWIDTH 461 0
DWIDTH 6 0
BBX 5 11 1 0
BITMAP
80
40
48
08
90
90
90
90
90
90
F0
ENDCHAR
STARTCHAR 1EEC
ENCODING 7916
SWIDTH 615 0
DWIDTH 8 0
BBX 7 12 1 0
BITMAP
32
22
86
84
84
84
84
84
84
84
84
78
ENDCHAR
STARTCHAR 1EED
ENCODING 7917
SWIDTH 461 0
DWIDTH 6 0
BBX 5 11 1 0
BITMAP
60
20
48
08
90
90
90
90
90
90
F0
ENDCHAR
STARTCHAR 1EEE
ENCODING 7918
SWIDTH 615 0
DWIDTH 8 0
BBX 7 12 1 0
BITMAP
7A
02
86
84
84
84
84
84
84
84
84
78
ENDCHAR
STARTCHAR 1EEF
ENCODING 7919
SWIDTH 461 0
DWIDTH 6 0
BBX 5 10 1 0
BITMAP
F0
08
08
90
90
90
90
90
90
F0
ENDCHAR
STARTCHAR 1EF0
ENCODING 7920
SWIDTH 615 0
DWIDTH 8 0
BBX 7 14 1 -2
BITMAP
02
02
86
84
84
84
84
84
84
84
84
78
00
20
ENDCHAR
STARTCHAR 1EF1
ENCODING 7921
SWIDTH 461 0
DWIDTH 6 0
BBX 5 11 1 -2
BITMAP
08
08
90
90
90
90
90
90
F0
00
40
ENDCHAR
STARTCHAR 1EF2
ENCODING 7922
SWIDTH 461 0
DWIDTH 6 0
BBX 6 12 0 0
BITMAP
20
10
84
84
48
48
30
20
10
10
10
10
ENDCHAR
STARTCHAR 1EF3
ENCODING 7923
SWIDTH 461 0
DWIDTH 6 0
BBX 6 14 0 -3
BITMAP
40
20
20
00
84
88
48
48
50
30
20
20
20
20
ENDCHAR
STARTCHAR 1EF4
ENCODING 7924
SWIDTH 461 0
DWIDTH 6 0
BBX 6 12 0 -2
BITMAP
84
84
48
48
30
20
10
10
10
10
00
10
ENDCHAR
STARTCHAR 1EF5
ENCODING 7925
SWIDTH 461 0
DWIDTH 6 0
BBX 6 10 0 -3
BITMAP
84
88
48
48
50
30
20
20
28
20
ENDCHAR
STARTCHAR 1EF6
ENCODING 7926
SWIDTH 461 0
DWIDTH 6 0
BBX 6 12 0 0
BITMAP
38
10
84
84
48
48
30
20
10
10
10
10
ENDCHAR
STARTCHAR 1EF7
ENCODING 7927
SWIDTH 461 0
DWIDTH 6 0
BBX 6 14 0 -3
BITMAP
20
10
20
00
84
88
48
48
50
30
20
20
20
20
ENDCHAR
STARTCHAR 1EF8
ENCODING 7928
SWIDTH 461 0
DWIDTH 6 0
BBX 6 12 0 0
BITMAP
78
00
84
84
48
48
30
20
10
10
10
10
ENDCHAR
STARTCHAR 1EF9
ENCODING 7929
SWIDTH 461 0
DWIDTH 6 0
BBX 6 13 0 -3
BITMAP
78
00
00
84
88
48
48
50
30
20
20
20
20
ENDCHAR
STARTCHAR 2007
ENCODING 8199
SWIDTH 538 0
DWIDTH 7 0
BBX 0 0 0 0
BITMAP
ENDCHAR
STARTCHAR 2008
ENCODING 8200
SWIDTH 153 0
DWIDTH 2 0
BBX 0 0 0 0
BITMAP
ENDCHAR
STARTCHAR 2009
ENCODING 8201
SWIDTH 230 0
DWIDTH 3 0
BBX 0 0 0 0
BITMAP
ENDCHAR
STARTCHAR 200A
ENCODING 8202
SWIDTH 76 0
DWIDTH 1 0
BBX 0 0 0 0
BITMAP
ENDCHAR
STARTCHAR 200B
ENCODING 8203
SWIDTH 0 0
DWIDTH 0 0
BBX 0 0 0 0
BITMAP
ENDCHAR
STARTCHAR 2010
ENCODING 8208
SWIDTH 307 0
DWIDTH 4 0
BBX 2 1 1 3
BITMAP
C0
ENDCHAR
STARTCHAR 2012
ENCODING 8210
SWIDTH 538 0
DWIDTH 7 0
BBX 5 1 1 3
BITMAP
F8
ENDCHAR
STARTCHAR 2013
ENCODING 8211
SWIDTH 384 0
DWIDTH 5 0
BBX 5 1 0 3
BITMAP
F8
ENDCHAR
STARTCHAR 2014
ENCODING 8212
SWIDTH 769 0
DWIDTH 10 0
BBX 10 1 0 3
BITMAP
FFC0
ENDCHAR
STARTCHAR 2015
ENCODING 8213
SWIDTH 769 0
DWIDTH 10 0
BBX 10 1 0 3
BITMAP
FFC0
ENDCHAR
STARTCHAR 2018
ENCODING 8216
SWIDTH 153 0
DWIDTH 2 0
BBX 1 3 1 8
BITMAP
80
80
80
ENDCHAR
STARTCHAR 2019
ENCODING 8217
SWIDTH 153 0
DWIDTH 2 0
BBX 1 3 1 8
BITMAP
80
80
80
ENDCHAR
STARTCHAR 201A
ENCODING 8218
SWIDTH 153 0
DWIDTH 2 0
BBX 1 3 1 -2
BITMAP
80
80
80
ENDCHAR
STARTCHAR 201C
ENCODING 8220
SWIDTH 307 0
DWIDTH 4 0
BBX 2 3 1 8
BITMAP
C0
C0
C0
ENDCHAR
STARTCHAR 201D
ENCODING 8221
SWIDTH 307 0
DWIDTH 4 0
BBX 2 3 1 8
BITMAP
C0
C0
C0
ENDCHAR
STARTCHAR 201E
ENCODING 8222
SWIDTH 307 0
DWIDTH 4 0
BBX 2 3 1 -2
BITMAP
C0
C0
C0
ENDCHAR
STARTCHAR 2020
ENCODING 8224
SWIDTH 461 0
DWIDTH 6 0
BBX 5 10 0 1
BITMAP
20
20
F8
20
20
20
20
20
20
20
ENDCHAR
STARTCHAR 2021
ENCODING 8225
SWIDTH 461 0
DWIDTH 6 0
BBX 5 10 0 1
BITMAP
20
20
F8
20
20
20
20
F8
20
20
ENDCHAR
STARTCHAR 2022
ENCODING 8226
SWIDTH 307 0
DWIDTH 4 0
BBX 2 3 1 2
BITMAP
C0
C0
C0
ENDCHAR
STARTCHAR 2026
ENCODING 8230
SWIDTH 538 0
DWIDTH 7 0
BBX 5 1 1 0
BITMAP
A8
ENDCHAR
STARTCHAR 2030
ENCODING 8240
SWIDTH 1076 0
DWIDTH 14 0
BBX 13 10 1 0
BITMAP
4400
A400
9800
9800
AB30
B4C8
54C8
14C8
24C8
2770
ENDCHAR
STARTCHAR 2032
ENCODING 8242
SWIDTH 153 0
DWIDTH 2 0
BBX 1 5 1 6
BITMAP
80
80
80
80
80
ENDCHAR
STARTCHAR 2033
ENCODING 8243
SWIDTH 307 0
DWIDTH 4 0
BBX 2 5 1 6
BITMAP
C0
C0
C0
C0
C0
ENDCHAR
STARTCHAR 2039
ENCODING 8249
SWIDTH 230 0
DWIDTH 3 0
BBX 1 5 1 1
BITMAP
80
80
80
80
80
ENDCHAR
STARTCHAR 203A
ENCODING 8250
SWIDTH 230 0
DWIDTH 3 0
BBX 2 5 0 1
BITMAP
C0
40
40
40
80
ENDCHAR
STARTCHAR 2044
ENCODING 8260
SWIDTH 76 0
DWIDTH 1 0
BBX 5 12 -2 -1
BITMAP
08
08
08
10
10
20
20
20
40
40
80
80
ENDCHAR
STARTCHAR 2070
ENCODING 8304
SWIDTH 307 0
DWIDTH 4 0
BBX 4 7 0 4
BITMAP
60
90
90
90
90
90
70
ENDCHAR
STARTCHAR 2074
ENCODING 8308
SWIDTH 307 0
DWIDTH 4 0
BBX 4 7 0 4
BITMAP
20
20
40
50
90
70
10
ENDCHAR
STARTCHAR 2075
ENCODING 8309
SWIDTH 307 0
DWIDTH 4 0
BBX 3 7 1 4
BITMAP
E0
80
80
C0
20
20
E0
ENDCHAR
STARTCHAR 2076
ENCODING 8310
SWIDTH 307 0
DWIDTH 4 0
BBX 3 7 1 4
BITMAP
60
80
80
C0
A0
A0
E0
ENDCHAR
STARTCHAR 2077
ENCODING 8311
SWIDTH 307 0
DWIDTH 4 0
BBX 4 7 0 4
BITMAP
F0
10
20
20
20
40
40
ENDCHAR
STARTCHAR 2078
ENCODING 8312
SWIDTH 307 0
DWIDTH 4 0
BBX 4 7 0 4
BITMAP
60
90
90
60
90
90
70
ENDCHAR
STARTCHAR 2079
ENCODING 8313
SWIDTH 307 0
DWIDTH 4 0
BBX 4 7 0 4
BITMAP
60
90
90
F0
10
10
E0
ENDCHAR
STARTCHAR 2080
ENCODING 8320
SWIDTH 307 0
DWIDTH 4 0
BBX 4 7 0 -1
BITMAP
60
90
90
90
90
90
60
ENDCHAR
STARTCHAR 2081
ENCODING 8321
SWIDTH 307 0
DWIDTH 4 0
BBX 3 7 1 -1
BITMAP
40
C0
40
40
40
40
E0
ENDCHAR
STARTCHAR 2082
ENCODING 8322
SWIDTH 307 0
DWIDTH 4 0
BBX 3 7 1 -1
BITMAP
C0
20
20
40
40
80
E0
ENDCHAR
STARTCHAR 2083
ENCODING 8323
SWIDTH 307 0
DWIDTH 4 0
BBX 4 7 0 -1
BITMAP
60
10
10
60
10
10
E0
ENDCHAR
STARTCHAR 2084
ENCODING 8324
SWIDTH 307 0
DWIDTH 4 0
BBX 4 7 0 -1
BITMAP
20
20
40
50
90
70
10
ENDCHAR
STARTCHAR 2085
ENCODING 8325
SWIDTH 307 0
DWIDTH 4 0
BBX 3 7 1 -1
BITMAP
E0
80
80
C0
20
20
C0
ENDCHAR
STARTCHAR 2086
ENCODING 8326
SWIDTH 307 0
DWIDTH 4 0
BBX 3 7 1 -1
BITMAP
60
80
80
C0
A0
A0
E0
ENDCHAR
STARTCHAR 2087
ENCODING 8327
SWIDTH 307 0
DWIDTH 4 0
BBX 4 7 0 -1
BITMAP
F0
10
20
20
20
40
40
ENDCHAR
STARTCHAR 2088
ENCODING 8328
SWIDTH 307 0
DWIDTH 4 0
BBX 4 7 0 -1
BITMAP
60
90
90
60
90
90
70
ENDCHAR
STARTCHAR 2089
ENCODING 8329
SWIDTH 307 0
DWIDTH 4 0
BBX 4 7 0 -1
BITMAP
60
90
90
70
10
10
E0
ENDCHAR
STARTCHAR 20A1
ENCODING 8353
SWIDTH 461 0
DWIDTH 6 0
BBX 5 13 1 -2
BITMAP
18
78
80
80
80
80
80
80
80
80
F8
C0
C0
ENDCHAR
STARTCHAR 20A3
ENCODING 8355
SWIDTH 538 0
DWIDTH 7 0
BBX 6 10 1 0
BITMAP
7C
40
40
40
78
40
40
E0
40
40
ENDCHAR
STARTCHAR 20A4
ENCODING 8356
SWIDTH 538 0
DWIDTH 7 0
BBX 5 10 1 0
BITMAP
38
40
40
40
F0
40
F0
40
40
F8
ENDCHAR
STARTCHAR 20A6
ENCODING 8358
SWIDTH 769 0
DWIDTH 10 0
BBX 8 10 1 0
BITMAP
42
42
62
62
D3
4A
CB
46
42
42
ENDCHAR
STARTCHAR 20A7
ENCODING 8359
SWIDTH 1076 0
DWIDTH 14 0
BBX 13 10 1 0
BITMAP
F200
8A00
8A00
8FF0
8A40
8A40
F230
8208
8208
83F0
ENDCHAR
STARTCHAR 20A9
ENCODING 8361
SWIDTH 923 0
DWIDTH 12 0
BBX 11 10 1 0
BITMAP
8420
8C40
8C40
8C40
9260
5280
D2E0
5280
6100
2100
ENDCHAR
STARTCHAR 20AB
ENCODING 8363
SWIDTH 461 0
DWIDTH 6 0
BBX 5 13 1 -2
BITMAP
10
10
38
10
70
90
90
90
90
90
F0
00
F0
ENDCHAR
STARTCHAR 20AC
ENCODING 8364
SWIDTH 538 0
DWIDTH 7 0
BBX 6 10 1 0
BITMAP
3C
40
40
80
F8
80
F8
80
40
3C
ENDCHAR
STARTCHAR 20AD
ENCODING 8365
SWIDTH 615 0
DWIDTH 8 0
BBX 7 10 1 0
BITMAP
42
44
48
50
50
FC
50
48
44
42
ENDCHAR
STARTCHAR 20B1
ENCODING 8369
SWIDTH 615 0
DWIDTH 8 0
BBX 7 10 1 0
BITMAP
78
44
86
44
86
4C
70
40
40
40
ENDCHAR
STARTCHAR 20B2
ENCODING 8370
SWIDTH 538 0
DWIDTH 7 0
BBX 5 13 1 -2
BITMAP
10
78
80
80
80
80
88
88
88
88
68
10
10
ENDCHAR
STARTCHAR 20B5
ENCODING 8373
SWIDTH 461 0
DWIDTH 6 0
BBX 5 13 1 -2
BITMAP
20
78
80
80
80
80
80
80
80
80
58
20
20
ENDCHAR
STARTCHAR 20B9
ENCODING 8377
SWIDTH 538 0
DWIDTH 7 0
BBX 5 10 1 0
BITMAP
F8
10
F8
10
10
E0
20
20
10
08
ENDCHAR
STARTCHAR 20BA
ENCODING 8378
SWIDTH 538 0
DWIDTH 7 0
BBX 5 10 1 0
BITMAP
40
58
60
80
70
80
40
40
40
78
ENDCHAR
STARTCHAR 20BC
ENCODING 8380
SWIDTH 615 0
DWIDTH 8 0
BBX 6 11 1 0
BITMAP
20
30
68
A4
A4
A4
A4
84
84
84
84
ENDCHAR
STARTCHAR 20BD
ENCODING 8381
SWIDTH 538 0
DWIDTH 7 0
BBX 6 10 1 0
BITMAP
78
44
44
44
44
F8
40
F0
40
40
ENDCHAR
STARTCHAR 20BF
ENCODING 8383
SWIDTH 538 0
DWIDTH 7 0
BBX 6 13 1 -2
BITMAP
50
F0
88
84
88
88
F8
84
84
84
B8
50
50
ENDCHAR
STARTCHAR 2113
ENCODING 8467
SWIDTH 307 0
DWIDTH 4 0
BBX 4 10 0 0
BITMAP
20
50
50
60
40
40
C0
40
40
70
ENDCHAR
STARTCHAR 2116
ENCODING 8470
SWIDTH 1000 0
DWIDTH 13 0
BBX 12 10 1 0
BITMAP
8460
8490
C510
A510
A510
94E0
9400
8C00
8C00
8400
ENDCHAR
STARTCHAR 2120
ENCODING 8480
SWIDTH 846 0
DWIDTH 11 0
BBX 10 7 0 3
BITMAP
7840
8440
8C40
6AC0
1B40
1940
E840
ENDCHAR
STARTCHAR 2122
ENCODING 8482
SWIDTH 846 0
DWIDTH 11 0
BBX 10 7 0 3
BITMAP
F440
2440
2440
26C0
26C0
2540
2440
ENDCHAR
STARTCHAR 2126
ENCODING 8486
SWIDTH 615 0
DWIDTH 8 0
BBX 6 10 1 0
BITMAP
70
88
84
84
84
84
84
84
88
DC
ENDCHAR
STARTCHAR 212E
ENCODING 8494
SWIDTH 769 0
DWIDTH 10 0
BBX 9 10 1 0
BITMAP
3C00
4200
8100
8100
FF80
8000
8000
8100
4100
3E00
ENDCHAR
STARTCHAR 2153
ENCODING 8531
SWIDTH 769 0
DWIDTH 10 0
BBX 8 12 1 -1
BITMAP
42
C4
44
44
48
4E
F1
11
12
21
21
47
ENDCHAR
STARTCHAR 2154
ENCODING 8532
SWIDTH 769 0
DWIDTH 10 0
BBX 8 12 1 -1
BITMAP
C2
24
24
44
48
8E
F1
11
12
21
21
47
ENDCHAR
STARTCHAR 215B
ENCODING 8539
SWIDTH 769 0
DWIDTH 10 0
BBX 9 12 1 -1
BITMAP
4200
C400
4400
4400
4800
4B00
F480
1480
1300
2480
2480
4700
ENDCHAR
STARTCHAR 215C
ENCODING 8540
SWIDTH 769 0
DWIDTH 10 0
BBX 10 12 0 -1
BITMAP
6100
1200
1200
6200
1400
1580
FA40
0A40
0980
1240
1240
2380
ENDCHAR
STARTCHAR 215D
ENCODING 8541
SWIDTH 769 0
DWIDTH 10 0
BBX 9 12 1 -1
BITMAP
E200
8400
8400
C400
2800
2B00
F480
1480
1300
2480
2480
4700
ENDCHAR
STARTCHAR 215E
ENCODING 8542
SWIDTH 769 0
DWIDTH 10 0
BBX 10 12 0 -1
BITMAP
F100
1200
2200
2200
2400
4580
4A40
0A40
0980
1240
1240
2380
ENDCHAR
STARTCHAR 2190
ENCODING 8592
SWIDTH 692 0
DWIDTH 9 0
BBX 7 6 1 2
BITMAP
20
40
80
FE
40
20
ENDCHAR
STARTCHAR 2191
ENCODING 8593
SWIDTH 615 0
DWIDTH 8 0
BBX 6 6 1 2
BITMAP
30
58
94
10
10
10
ENDCHAR
STARTCHAR 2192
ENCODING 8594
SWIDTH 692 0
DWIDTH 9 0
BBX 7 6 1 2
BITMAP
10
08
04
FE
08
10
ENDCHAR
STARTCHAR 2193
ENCODING 8595
SWIDTH 615 0
DWIDTH 8 0
BBX 6 6 1 2
BITMAP
10
10
10
94
58
30
ENDCHAR
STARTCHAR 2202
ENCODING 8706
SWIDTH 461 0
DWIDTH 6 0
BBX 5 10 0 0
BITMAP
70
08
08
08
78
88
88
88
88
70
ENDCHAR
STARTCHAR 2206
ENCODING 8710
SWIDTH 538 0
DWIDTH 7 0
BBX 7 10 0 0
BITMAP
10
10
28
28
24
44
44
42
82
FE
ENDCHAR
STARTCHAR 220F
ENCODING 8719
SWIDTH 615 0
DWIDTH 8 0
BBX 5 13 1 -3
BITMAP
F8
88
88
88
88
88
88
88
88
88
88
88
88
ENDCHAR
STARTCHAR 2211
ENCODING 8721
SWIDTH 461 0
DWIDTH 6 0
BBX 5 13 0 -3
BITMAP
F8
40
40
20
20
10
10
10
20
20
40
40
F8
ENDCHAR
STARTCHAR 2212
ENCODING 8722
SWIDTH 538 0
DWIDTH 7 0
BBX 5 1 1 4
BITMAP
F8
ENDCHAR
STARTCHAR 2215
ENCODING 8725
SWIDTH 230 0
DWIDTH 3 0
BBX 3 10 0 0
BITMAP
20
20
40
40
40
40
40
80
80
80
ENDCHAR
STARTCHAR 2219
ENCODING 8729
SWIDTH 153 0
DWIDTH 2 0
BBX 1 1 1 4
BITMAP
80
ENDCHAR
STARTCHAR 221A
ENCODING 8730
SWIDTH 615 0
DWIDTH 8 0
BBX 7 10 1 0
BITMAP
02
02
02
C4
44
24
28
28
10
10
ENDCHAR
STARTCHAR 221E
ENCODING 8734
SWIDTH 769 0
DWIDTH 10 0
BBX 9 4 1 3
BITMAP
E700
9880
9880
E700
ENDCHAR
STARTCHAR 222B
ENCODING 8747
SWIDTH 230 0
DWIDTH 3 0
BBX 3 13 0 -3
BITMAP
20
40
40
40
40
40
40
40
40
40
20
20
C0
ENDCHAR
STARTCHAR 2248
ENCODING 8776
SWIDTH 538 0
DWIDTH 7 0
BBX 5 4 1 3
BITMAP
E8
10
40
B8
ENDCHAR
STARTCHAR 2260
ENCODING 8800
SWIDTH 538 0
DWIDTH 7 0
BBX 5 4 1 3
BITMAP
D8
20
40
B8
ENDCHAR
STARTCHAR 2264
ENCODING 8804
SWIDTH 538 0
DWIDTH 7 0
BBX 5 7 1 0
BITMAP
38
40
C0
30
08
00
F8
ENDCHAR
STARTCHAR 2265
ENCODING 8805
SWIDTH 538 0
DWIDTH 7 0
BBX 5 7 1 0
BITMAP
C0
30
38
C0
00
00
F8
ENDCHAR
STARTCHAR 25CA
ENCODING 9674
SWIDTH 538 0
DWIDTH 7 0
BBX 5 10 1 0
BITMAP
20
60
50
90
88
88
90
50
60
20
ENDCHAR
STARTCHAR FB01
ENCODING 64257
SWIDTH 461 0
DWIDTH 6 0
BBX 5 11 0 0
BITMAP
30
48
40
40
F8
48
48
48
48
48
48
ENDCHAR
STARTCHAR FB02
ENCODING 64258
SWIDTH 461 0
DWIDTH 6 0
BBX 5 11 0 0
BITMAP
38
48
48
48
F8
48
48
48
48
48
48
ENDCHAR
ENDFONT
